<svg 
 xmlns="http://www.w3.org/2000/svg"
 xmlns:xlink="http://www.w3.org/1999/xlink"
 width="200px" height="200px">
<path fill-rule="evenodd"  fill="rgb(255, 255, 255)"
 d="M100.000,200.000 C44.772,200.000 -0.000,155.228 -0.000,100.000 C-0.000,44.772 44.772,-0.000 100.000,-0.000 C155.228,-0.000 200.000,44.772 200.000,100.000 C200.000,155.228 155.228,200.000 100.000,200.000 ZM108.494,154.211 C108.494,154.211 116.173,154.211 116.173,154.211 C116.173,154.211 116.173,134.652 116.173,134.652 C117.433,132.972 119.773,131.292 122.773,131.292 C126.013,131.292 128.113,132.552 128.113,136.572 C128.113,136.572 128.113,154.211 128.113,154.211 C128.113,154.211 135.733,154.211 135.733,154.211 C135.733,154.211 135.733,133.632 135.733,133.632 C135.733,127.992 132.673,124.512 126.313,124.512 C121.573,124.512 118.033,126.792 116.173,128.952 C116.173,128.952 116.173,114.193 116.173,114.193 C116.173,114.193 108.494,114.193 108.494,114.193 C108.494,114.193 108.494,154.211 108.494,154.211 ZM79.622,54.419 C79.622,54.419 84.110,48.503 84.110,48.503 C80.574,45.103 75.951,42.928 70.443,42.316 C70.443,42.316 70.443,35.992 70.443,35.992 C70.443,35.992 65.004,35.992 65.004,35.992 C65.004,35.992 65.004,42.248 65.004,42.248 C56.233,42.996 50.657,48.503 50.657,55.439 C50.657,64.278 58.001,66.793 65.004,68.561 C65.004,68.561 65.004,81.752 65.004,81.752 C60.108,81.004 56.165,78.420 53.649,75.632 C53.649,75.632 49.162,81.820 49.162,81.820 C52.765,85.559 58.001,88.347 65.004,88.891 C65.004,88.891 65.004,95.010 65.004,95.010 C65.004,95.010 70.443,95.010 70.443,95.010 C70.443,95.010 70.443,88.891 70.443,88.891 C80.642,88.007 85.198,81.888 85.198,74.952 C85.198,65.841 77.515,63.189 70.443,61.354 C70.443,61.354 70.443,49.591 70.443,49.591 C73.775,50.271 77.039,51.835 79.622,54.419 ZM145.023,47.235 C145.023,47.235 46.735,145.523 46.735,145.523 C46.735,145.523 50.977,149.765 50.977,149.765 C50.977,149.765 149.265,51.477 149.265,51.477 C149.265,51.477 145.023,47.235 145.023,47.235 ZM160.152,124.512 C156.552,124.512 153.012,126.612 150.913,129.132 C150.913,129.132 150.913,125.232 150.913,125.232 C150.913,125.232 143.293,125.232 143.293,125.232 C143.293,125.232 143.293,154.211 143.293,154.211 C143.293,154.211 150.913,154.211 150.913,154.211 C150.913,154.211 150.913,135.072 150.913,135.072 C152.172,133.212 155.532,131.772 158.052,131.772 C158.952,131.772 159.612,131.832 160.152,131.952 C160.152,131.952 160.152,124.512 160.152,124.512 ZM58.817,54.826 C58.817,51.835 61.196,49.727 65.004,49.251 C65.004,49.251 65.004,59.926 65.004,59.926 C61.400,58.838 58.817,57.478 58.817,54.826 ZM77.039,75.700 C77.039,78.352 75.135,81.140 70.443,81.820 C70.443,81.820 70.443,69.989 70.443,69.989 C74.183,71.145 77.039,72.641 77.039,75.700 Z"/>
</svg>