<?xml version="1.0" encoding="utf-8"?>
<!-- Generator: Adobe Illustrator 18.1.1, SVG Export Plug-In . SVG Version: 6.00 Build 0)  -->
<!DOCTYPE svg PUBLIC "-//W3C//DTD SVG 1.1//EN" "http://www.w3.org/Graphics/SVG/1.1/DTD/svg11.dtd">
<svg version="1.1" id="Layer_1" xmlns="http://www.w3.org/2000/svg" xmlns:xlink="http://www.w3.org/1999/xlink" x="0px" y="0px"
	 viewBox="131.2 333.8 83.5 83.5" enable-background="new 131.2 333.8 83.5 83.5" xml:space="preserve">
<path fill="#6BBE98" d="M190.9,385.5h-4c-2,0-4,2-4,4v4c0,2,2,4,4,4h4c2,0,4-2,4-4v-4C194.9,387.4,192.9,385.5,190.9,385.5z
	 M190.9,369.5h-4c-2,0-4,2-4,4v4c0,2,2,4,4,4h4c2,0,4-2,4-4v-4C194.9,371.5,192.9,369.5,190.9,369.5z M175,385.5h-4c-2,0-4,2-4,4v4
	c0,2,2,4,4,4h4c2,0,4-2,4-4v-4C178.9,387.4,177,385.5,175,385.5z M175,369.5h-4c-2,0-4,2-4,4v4c0,2,2,4,4,4h4c2,0,4-2,4-4v-4
	C178.9,371.5,177,369.5,175,369.5z M159.1,385.5h-4c-2,0-4,2-4,4v4c0,2,2,4,4,4h4c2,0,4-2,4-4v-4C163,387.4,161.1,385.5,159.1,385.5
	z M159.1,369.5h-4c-2,0-4,2-4,4v4c0,2,2,4,4,4h4c2,0,4-2,4-4v-4C163,371.5,161.1,369.5,159.1,369.5z M159.1,385.5h-4c-2,0-4,2-4,4v4
	c0,2,2,4,4,4h4c2,0,4-2,4-4v-4C163,387.4,161.1,385.5,159.1,385.5z M159.1,369.5h-4c-2,0-4,2-4,4v4c0,2,2,4,4,4h4c2,0,4-2,4-4v-4
	C163,371.5,161.1,369.5,159.1,369.5z M175,385.5h-4c-2,0-4,2-4,4v4c0,2,2,4,4,4h4c2,0,4-2,4-4v-4C178.9,387.4,177,385.5,175,385.5z
	 M175,369.5h-4c-2,0-4,2-4,4v4c0,2,2,4,4,4h4c2,0,4-2,4-4v-4C178.9,371.5,177,369.5,175,369.5z M190.9,385.5h-4c-2,0-4,2-4,4v4
	c0,2,2,4,4,4h4c2,0,4-2,4-4v-4C194.9,387.4,192.9,385.5,190.9,385.5z M190.9,369.5h-4c-2,0-4,2-4,4v4c0,2,2,4,4,4h4c2,0,4-2,4-4v-4
	C194.9,371.5,192.9,369.5,190.9,369.5z M206.8,333.8h-67.6c-4.4,0-8,3.6-8,8v67.6c0,4.4,3.6,8,8,8h67.6c4.4,0,8-3.6,8-8v-67.6
	C214.7,337.3,211.2,333.8,206.8,333.8z M206.8,409.3h-67.6v-51.7h67.6V409.3z M206.8,349.7h-67.6v-8h67.6V349.7z M186.9,397.4h4
	c2,0,4-2,4-4v-4c0-2-2-4-4-4h-4c-2,0-4,2-4,4v4C182.9,395.4,184.9,397.4,186.9,397.4z M186.9,381.5h4c2,0,4-2,4-4v-4c0-2-2-4-4-4h-4
	c-2,0-4,2-4,4v4C182.9,379.5,184.9,381.5,186.9,381.5z M171,397.4h4c2,0,4-2,4-4v-4c0-2-2-4-4-4h-4c-2,0-4,2-4,4v4
	C167,395.4,169,397.4,171,397.4z M171,381.5h4c2,0,4-2,4-4v-4c0-2-2-4-4-4h-4c-2,0-4,2-4,4v4C167,379.5,169,381.5,171,381.5z
	 M155.1,397.4h4c2,0,4-2,4-4v-4c0-2-2-4-4-4h-4c-2,0-4,2-4,4v4C151.1,395.4,153.1,397.4,155.1,397.4z M155.1,381.5h4c2,0,4-2,4-4v-4
	c0-2-2-4-4-4h-4c-2,0-4,2-4,4v4C151.1,379.5,153.1,381.5,155.1,381.5z M190.9,385.5h-4c-2,0-4,2-4,4v4c0,2,2,4,4,4h4c2,0,4-2,4-4v-4
	C194.9,387.4,192.9,385.5,190.9,385.5z M190.9,369.5h-4c-2,0-4,2-4,4v4c0,2,2,4,4,4h4c2,0,4-2,4-4v-4
	C194.9,371.5,192.9,369.5,190.9,369.5z M175,385.5h-4c-2,0-4,2-4,4v4c0,2,2,4,4,4h4c2,0,4-2,4-4v-4C178.9,387.4,177,385.5,175,385.5
	z M175,369.5h-4c-2,0-4,2-4,4v4c0,2,2,4,4,4h4c2,0,4-2,4-4v-4C178.9,371.5,177,369.5,175,369.5z M159.1,385.5h-4c-2,0-4,2-4,4v4
	c0,2,2,4,4,4h4c2,0,4-2,4-4v-4C163,387.4,161.1,385.5,159.1,385.5z M159.1,369.5h-4c-2,0-4,2-4,4v4c0,2,2,4,4,4h4c2,0,4-2,4-4v-4
	C163,371.5,161.1,369.5,159.1,369.5z M159.1,369.5h-4c-2,0-4,2-4,4v4c0,2,2,4,4,4h4c2,0,4-2,4-4v-4
	C163,371.5,161.1,369.5,159.1,369.5z M175,369.5h-4c-2,0-4,2-4,4v4c0,2,2,4,4,4h4c2,0,4-2,4-4v-4C178.9,371.5,177,369.5,175,369.5z
	 M190.9,369.5h-4c-2,0-4,2-4,4v4c0,2,2,4,4,4h4c2,0,4-2,4-4v-4C194.9,371.5,192.9,369.5,190.9,369.5z M159.1,385.5h-4c-2,0-4,2-4,4
	v4c0,2,2,4,4,4h4c2,0,4-2,4-4v-4C163,387.4,161.1,385.5,159.1,385.5z M175,385.5h-4c-2,0-4,2-4,4v4c0,2,2,4,4,4h4c2,0,4-2,4-4v-4
	C178.9,387.4,177,385.5,175,385.5z M190.9,385.5h-4c-2,0-4,2-4,4v4c0,2,2,4,4,4h4c2,0,4-2,4-4v-4
	C194.9,387.4,192.9,385.5,190.9,385.5z"/>
</svg>
