<?xml version="1.0" encoding="utf-8"?>
<!-- Generator: Adobe Illustrator 18.1.1, SVG Export Plug-In . SVG Version: 6.00 Build 0)  -->
<!DOCTYPE svg PUBLIC "-//W3C//DTD SVG 1.1//EN" "http://www.w3.org/Graphics/SVG/1.1/DTD/svg11.dtd">
<svg version="1.1" id="Layer_1" xmlns="http://www.w3.org/2000/svg" xmlns:xlink="http://www.w3.org/1999/xlink" x="0px" y="0px"
	 viewBox="596.9 333.4 110.9 83.1" enable-background="new 596.9 333.4 110.9 83.1" xml:space="preserve">
<path fill="#6BBE98" d="M608.4,399L608.4,399C608.4,399.4,608.4,399.4,608.4,399C608.4,399.4,608.4,399,608.4,399L608.4,399z
	 M706.2,402.6c-4-4-7.2-7.6-8.7-9.9c5.2-7.2,6.4-15.5,6.4-23.5c0-20.7-19.5-35.4-41-35.8h-0.8c-0.8,0-2,0-3.6,0c-2.4,0-6.8,2-6.8,2
	c-4-1.2-8.7-2-13.1-2c-23.1,0-41.8,17.1-41.8,38.6c0,9.1,3.6,17.9,9.5,24.7c0.4,0.4,1.6,2,2,2.4c-1.2,1.6-8,11.5-11.5,15.1
	c-1.2,1.6,0.4,2.4,3.6,2.4c6,0,16.3-2.4,24.7-7.6h0.4c0.4,0,0.8,0.4,1.2,0.4c1.6,0,9.5,0,13.5,0h15.9c4.4,0,9.9,0,11.9,0
	c3.6-0.4,7.2-1.2,10.7-2.4c6,3.6,13.1,5.2,18.7,5.2c4.4,0,7.6-0.8,9.1-2.8C708.2,407.3,708.2,404.5,706.2,402.6z M638.6,402.6
	c-3.2,0-6-0.4-9.1-1.2c-0.8-0.4-2.4-0.8-4-0.8c-1.6,0-3.2,0.4-4.8,1.2c-2.4,1.6-4.8,2.8-7.6,3.6l0,0c0.4-0.4,0.4-0.4,0.4-0.8
	l0.4-0.4c1.6-1.6,2.4-4,2-6.4l-0.4-7.6h-4c-4.8-5.6-7.2-11.9-7.2-18.7c0-16.7,15.1-30.6,33.8-30.6c18.7,0,33.4,13.5,33.4,30.6
	C672,389,656.9,402.6,638.6,402.6z M681.2,399.4c-0.8-0.4-2.8-1.6-5.2,0c-2,0.8-4.4,1.2-6.8,1.6c7.2-7.2,11.1-17.5,10.3-28.6
	c0-12.3-6.4-23.5-16.3-30.6c16.7-0.8,31.4,11.1,32.6,27c0.4,7.2-1.6,13.9-6,19.9c-2.4,2-2,4.4-2,5.2s0.8,2,8,9.9
	C692.7,404.1,686.8,402.6,681.2,399.4z"/>
</svg>
