<?xml version="1.0" encoding="utf-8"?>
<!-- Generator: Adobe Illustrator 16.0.0, SVG Export Plug-In . SVG Version: 6.00 Build 0)  -->
<!DOCTYPE svg PUBLIC "-//W3C//DTD SVG 1.1//EN" "http://www.w3.org/Graphics/SVG/1.1/DTD/svg11.dtd">
<svg version="1.1" id="Layer_1" xmlns="http://www.w3.org/2000/svg" xmlns:xlink="http://www.w3.org/1999/xlink" x="0px" y="0px"
	 width="32px" height="28.002px" viewBox="0 0 32 28.002" enable-background="new 0 0 32 28.002" xml:space="preserve">
<path fill="#6BBE98" d="M31.878,19.782l0.005-0.001l-1.912-9.906c-0.564-2.244-1.252-3.702-2.263-4.587L27.02,2.75
	c-0.146-0.861-0.629-1.593-1.324-2.009c-1.506-0.895-3.471-0.987-5.086-0.236C19.604,0.975,19,2.023,19,3.175v3.809
	c0,0.643-0.777,1.365-0.91,2.138h-4.18C13.768,8.286,13.455,7.507,13,6.827V3.175c0-1.152-0.65-2.2-1.657-2.67
	C9.729-0.247,7.715-0.153,6.209,0.743c-0.697,0.415-1.18,1.148-1.303,1.915L4.165,5.402c-0.946,0.901-1.6,2.348-2.147,4.526
	l-1.901,9.853l0.005,0.001C0.045,20.192,0,20.614,0,21.046c0,3.835,3.141,6.956,7,6.956s7-3.121,7-6.956V19.06h4v1.986
	c0,3.835,3.141,6.956,7,6.956s7-3.121,7-6.956C32,20.614,31.955,20.192,31.878,19.782L31.878,19.782z M28.988,15.339
	C27.855,14.554,26.482,14.09,25,14.09c-1.958,0-3.729,0.806-5,2.097v-6.071c0-2.191,1.794-3.975,4-3.975
	c2.064,0,3.068,0.399,4.018,4.162L28.988,15.339z M21.459,2.305c1.012-0.47,2.295-0.415,3.23,0.142
	c0.19,0.114,0.32,0.35,0.389,0.726l0.287,1.082c-0.417-0.065-0.821-0.1-1.314-0.1C22.917,4.154,22,4.473,21,5.018V3.175
	C21,2.796,21.154,2.446,21.459,2.305z M6.858,3.078c0.047-0.281,0.189-0.517,0.379-0.631c0.935-0.555,2.243-0.613,3.256-0.142
	C10.797,2.446,11,2.796,11,3.175V4.96c-0.884-0.51-1.907-0.807-3-0.807c-0.534,0-1.016,0.04-1.462,0.118L6.858,3.078z M8,6.141
	c2.206,0,4,1.783,4,3.975v6.072c-1.271-1.293-3.042-2.098-5-2.098c-1.483,0-2.857,0.465-3.991,1.25l0.96-4.983
	C4.931,6.54,5.936,6.141,8,6.141z M7,26.015c-2.757,0-5.051-2.229-5.051-4.969L2,20.048v-0.003c1-2.262,2.537-3.967,4.949-3.967
	c2.756,0,5.025,2.229,5.025,4.968C11.975,23.786,9.757,26.015,7,26.015z M14,17.071v-5.962h4v5.962H14z M25,26.015
	c-2.757,0-5-2.229-5-4.969c0-2.738,2.294-4.968,5.051-4.968c2.412,0,3.949,1.706,4.949,3.967v0.003l0.051,0.998
	C30.051,23.786,27.757,26.015,25,26.015L25,26.015z"/>
</svg>
