<?xml version="1.0" encoding="utf-8"?>
<!-- Generator: Adobe Illustrator 16.0.0, SVG Export Plug-In . SVG Version: 6.00 Build 0)  -->
<!DOCTYPE svg PUBLIC "-//W3C//DTD SVG 1.1//EN" "http://www.w3.org/Graphics/SVG/1.1/DTD/svg11.dtd">
<svg version="1.1" id="Layer_1" xmlns="http://www.w3.org/2000/svg" xmlns:xlink="http://www.w3.org/1999/xlink" x="0px" y="0px"
	 width="29px" height="27.928px" viewBox="0 0 29 27.928" enable-background="new 0 0 29 27.928" xml:space="preserve">
<path fill="#6BBE98" d="M24.318,7.345c-0.108,0-0.211,0.021-0.318,0.028V0.998c0-0.467-0.324-0.871-0.781-0.974
	c-0.459-0.102-0.923,0.125-1.123,0.547c-0.021,0.045-2.142,4.416-6.368,4.416H7.137C3.135,4.987,0,8.055,0,11.97
	c0,3.184,2.073,5.806,5,6.675v5.862c0,1.854,1.612,3.421,3.57,3.421c1.892,0,3.43-1.534,3.43-3.421v-1.524
	c0-2.168,1.74-3.996,3.811-4.026c4.139,0.06,6.263,4.453,6.283,4.497c0.167,0.356,0.524,0.576,0.906,0.576
	c0.071,0,0.144-0.008,0.216-0.024C23.674,23.904,24,23.499,24,23.031v-6.376c0.107,0.008,0.209,0.028,0.318,0.028
	c2.581,0,4.682-2.095,4.682-4.669C29,9.439,26.899,7.345,24.318,7.345z M2,11.97c0-2.797,2.256-4.987,5.137-4.987H8v9.974H7.137
	C4.256,16.956,2,14.766,2,11.97z M10,22.982v1.524c0,0.786-0.642,1.426-1.479,1.426C7.711,25.933,7,25.267,7,24.507v-5.562
	c0.046,0.001,0.09,0.007,0.137,0.007h4.419C10.598,20.028,10,21.447,10,22.982z M22,19.872c-1.279-1.374-3.226-2.759-5.873-2.89
	c-0.043-0.006-0.082-0.026-0.127-0.026h-0.14c-0.024,0-0.048,0.004-0.072,0.004c-0.021,0-0.04-0.004-0.061-0.004H10V6.982h5.728
	c2.857,0,4.929-1.45,6.272-2.87V19.872z M24.318,14.689c-0.11,0-0.214-0.015-0.318-0.027V9.367c0.104-0.012,0.208-0.027,0.318-0.027
	c1.479,0,2.682,1.2,2.682,2.675C27,13.489,25.797,14.689,24.318,14.689z"/>
</svg>
