<?xml version="1.0" encoding="utf-8"?>
<!-- Generator: Adobe Illustrator 16.0.0, SVG Export Plug-In . SVG Version: 6.00 Build 0)  -->
<!DOCTYPE svg PUBLIC "-//W3C//DTD SVG 1.1//EN" "http://www.w3.org/Graphics/SVG/1.1/DTD/svg11.dtd">
<svg version="1.1" id="Layer_1" xmlns="http://www.w3.org/2000/svg" xmlns:xlink="http://www.w3.org/1999/xlink" x="0px" y="0px"
	 width="29px" height="30px" viewBox="0 0 29 30" enable-background="new 0 0 29 30" xml:space="preserve">
<path fill="#6BBE98" d="M26.5,2h-3.551c-0.232-1.14-1.242-2-2.449-2h-1c-1.207,0-2.217,0.859-2.449,2h-5.102
	C11.717,0.86,10.707,0,9.5,0h-1C7.293,0,6.283,0.859,6.051,2H2.5C1.122,2,0,3.121,0,4.5v23C0,28.878,1.122,30,2.5,30h24
	c1.378,0,2.5-1.122,2.5-2.5v-23C29,3.121,27.878,2,26.5,2z M19,2.499C19,2.224,19.225,2,19.5,2h1C20.775,2,21,2.225,21,2.5v3
	C21,5.775,20.775,6,20.5,6h-1C19.225,6,19,5.775,19,5.5V2.499z M8,2.499C8,2.224,8.224,2,8.5,2h1C9.776,2,10,2.225,10,2.5v3
	C10,5.775,9.776,6,9.5,6h-1C8.224,6,8,5.775,8,5.5V2.499z M2.5,4H6v1.5C6,6.878,7.122,8,8.5,8h1C10.878,8,12,6.878,12,5.5V4h5v1.5
	C17,6.878,18.122,8,19.5,8h1C21.878,8,23,6.878,23,5.5V4h3.5C26.775,4,27,4.224,27,4.5V10H2V4.5C2,4.224,2.224,4,2.5,4z
	 M26.5,27.999h-24c-0.276,0-0.5-0.224-0.5-0.5V12h25v15.5C27,27.775,26.775,27.999,26.5,27.999z M10.25,15.999h-1.5
	c-0.414,0-0.75,0.336-0.75,0.75v1.5c0,0.415,0.336,0.75,0.75,0.75h1.5c0.414,0,0.75-0.335,0.75-0.75v-1.5
	C11,16.335,10.664,15.999,10.25,15.999z M15.25,15.999h-1.5c-0.414,0-0.75,0.336-0.75,0.75v1.5c0,0.415,0.336,0.75,0.75,0.75h1.5
	c0.414,0,0.75-0.335,0.75-0.75v-1.5C16,16.335,15.664,15.999,15.25,15.999z M20.25,15.999h-1.5c-0.414,0-0.75,0.336-0.75,0.75v1.5
	c0,0.415,0.336,0.75,0.75,0.75h1.5c0.414,0,0.75-0.335,0.75-0.75v-1.5C21,16.335,20.664,15.999,20.25,15.999z M10.25,21h-1.5
	C8.336,21,8,21.335,8,21.75v1.5C8,23.664,8.336,24,8.75,24h1.5c0.414,0,0.75-0.335,0.75-0.75v-1.5C11,21.335,10.664,21,10.25,21z
	 M15.25,21h-1.5C13.336,21,13,21.335,13,21.75v1.5c0,0.415,0.336,0.75,0.75,0.75h1.5c0.414,0,0.75-0.335,0.75-0.75v-1.5
	C16,21.335,15.664,21,15.25,21z M20.25,21h-1.5C18.336,21,18,21.335,18,21.75v1.5c0,0.415,0.336,0.75,0.75,0.75h1.5
	c0.414,0,0.75-0.335,0.75-0.75v-1.5C21,21.335,20.664,21,20.25,21z"/>
</svg>
