<?xml version="1.0" encoding="utf-8"?>
<!-- Generator: Adobe Illustrator 16.0.0, SVG Export Plug-In . SVG Version: 6.00 Build 0)  -->
<!DOCTYPE svg PUBLIC "-//W3C//DTD SVG 1.1//EN" "http://www.w3.org/Graphics/SVG/1.1/DTD/svg11.dtd">
<svg version="1.1" id="Layer_1" xmlns="http://www.w3.org/2000/svg" xmlns:xlink="http://www.w3.org/1999/xlink" x="0px" y="0px"
	 width="26px" height="32px" viewBox="0 0 26 32" enable-background="new 0 0 26 32" xml:space="preserve">
<path fill="#6BBE98" d="M10,6h10v2H10V6z M10,13h10v-2H10V13z M10,18h10v-2H10V18z M6,8h2V6H6V8z M6,13h2v-2H6V13z M6,18h2v-2H6V18z
	 M26,2.5v27c0,1.379-1.122,2.5-2.5,2.5H8.001l-0.055-0.011c-0.113-0.007-0.226-0.023-0.33-0.067
	c-0.119-0.049-0.227-0.122-0.317-0.211l-0.004-0.003l-0.001-0.002l-7-6.998l-0.037-0.056c-0.071-0.08-0.136-0.166-0.179-0.268
	C0.027,24.266,0,24.134,0,24V2.5C0,1.122,1.122,0,2.5,0h21C24.878,0,26,1.122,26,2.5z M7,25H3.414L7,28.586V25z M24,2.5
	C24,2.224,23.775,2,23.5,2h-21C2.224,2,2,2.224,2,2.5V23h6c0.552,0,1,0.447,1,1v6h14.5c0.275,0,0.5-0.225,0.5-0.5V2.5z"/>
</svg>
