<?xml version="1.0" encoding="utf-8"?>
<!-- Generator: Adobe Illustrator 16.0.0, SVG Export Plug-In . SVG Version: 6.00 Build 0)  -->
<!DOCTYPE svg PUBLIC "-//W3C//DTD SVG 1.1//EN" "http://www.w3.org/Graphics/SVG/1.1/DTD/svg11.dtd">
<svg version="1.1" id="Layer_1" xmlns="http://www.w3.org/2000/svg" xmlns:xlink="http://www.w3.org/1999/xlink" x="0px" y="0px"
	 width="30px" height="31px" viewBox="0 0 30 31" enable-background="new 0 0 30 31" xml:space="preserve">
<path fill="#6BBE98" d="M27.5,2h-3.551c-0.232-1.14-1.242-2-2.449-2h-1c-1.207,0-2.217,0.86-2.449,2h-6.102
	C11.717,0.86,10.707,0,9.5,0h-1C7.293,0,6.283,0.86,6.051,2H2.5C1.122,2,0,3.121,0,4.5v24C0,29.879,1.122,31,2.5,31h25
	c1.378,0,2.5-1.121,2.5-2.5v-24C30,3.121,28.878,2,27.5,2z M20,2.5C20,2.224,20.224,2,20.5,2h1C21.776,2,22,2.224,22,2.5v2
	C22,4.775,21.776,5,21.5,5h-1C20.224,5,20,4.775,20,4.5V2.5z M8,2.5C8,2.224,8.224,2,8.5,2h1C9.776,2,10,2.224,10,2.5v2
	C10,4.775,9.776,5,9.5,5h-1C8.224,5,8,4.775,8,4.5V2.5z M28,28.5c0,0.276-0.224,0.5-0.5,0.5h-25C2.224,29,2,28.775,2,28.5V11h26
	V28.5z M28,9H2V4.5C2,4.224,2.224,4,2.5,4H6v0.5C6,5.878,7.122,7,8.5,7h1C10.878,7,12,5.878,12,4.5V4h6v0.5
	C18,5.878,19.122,7,20.5,7h1C22.878,7,24,5.878,24,4.5V4h3.5C27.776,4,28,4.224,28,4.5V9z"/>
<path fill="#6BBE98" d="M21.932,17.787C21.764,17.309,21.327,17,20.818,17H17.41l-1.344-3.351c-0.214-0.548-0.676-0.745-1.036-0.745
	c-0.483,0-0.894,0.309-1.091,0.812L12.596,17H9.182c-0.51,0-0.947,0.31-1.114,0.789c-0.174,0.498-0.009,1.057,0.389,1.371
	l2.919,2.453l-1.186,3.917c-0.161,0.526,0.025,0.89,0.15,1.059c0.189,0.255,0.543,0.431,0.86,0.431c0.244,0,0.483-0.079,0.713-0.238
	l3.089-2.151l3.082,2.132c0.222,0.156,0.46,0.236,0.706,0.236c0.316,0,0.676-0.179,0.864-0.433c0.128-0.172,0.318-0.539,0.158-1.07
	l-1.187-3.953l2.898-2.367C21.942,18.842,22.106,18.284,21.932,17.787z M16.844,20.416c-0.312,0.256-0.441,0.675-0.325,1.062
	l0.67,2.234l-1.619-1.121c-0.172-0.118-0.37-0.178-0.569-0.178c-0.2,0-0.399,0.06-0.571,0.18l-1.598,1.112l0.649-2.144
	c0.116-0.382-0.008-0.797-0.313-1.055L11.374,19h1.893c0.406,0,0.771-0.245,0.926-0.621l0.816-1.995l0.797,1.988
	C15.957,18.751,16.325,19,16.733,19h1.845L16.844,20.416z"/>
</svg>
