<?xml version="1.0" encoding="utf-8"?>
<!-- Generator: Adobe Illustrator 16.0.0, SVG Export Plug-In . SVG Version: 6.00 Build 0)  -->
<!DOCTYPE svg PUBLIC "-//W3C//DTD SVG 1.1//EN" "http://www.w3.org/Graphics/SVG/1.1/DTD/svg11.dtd">
<svg version="1.1" id="Layer_1" xmlns="http://www.w3.org/2000/svg" xmlns:xlink="http://www.w3.org/1999/xlink" x="0px" y="0px"
	 width="30px" height="33px" viewBox="0 0 30 33" enable-background="new 0 0 30 33" xml:space="preserve">
<g>
	<path fill="#6BBE98" d="M28.426,10.536l-4.472-2.484C23.495,3.537,19.654,0,15,0c-4.717,0-8.591,3.633-8.963,8.235L2.462,6.489
		C1.896,6.24,1.294,6.28,0.81,6.596C0.295,6.933,0,7.521,0,8.21v17.72c0,1.055,0.713,2.161,1.575,2.534l7.94,4.41l0.138,0.056
		l0.087,0.034L10,33c0.136,0,0.269-0.036,0.396-0.091l0.041-0.011l9.534-4.633l7.567,4.199c0.255,0.111,0.517,0.167,0.769,0.167
		c0.322,0,0.633-0.09,0.904-0.267C29.712,32.038,30,31.464,30,30.79V13.07C30,12.017,29.287,10.91,28.426,10.536z M15,2
		c3.859,0,7,3.122,7,6.959c0,4.512-5.259,9.295-7.031,10.779C13.189,18.378,8,13.982,8,8.959C8,5.122,11.14,2,15,2z M2,25.93
		L2.005,8.491l4.136,2.021c0.381,2.329,1.557,4.443,2.917,6.201C9.03,16.805,9,16.898,9,17v13.302l-6.538-3.628
		C2.26,26.586,2,26.209,2,25.93z M11,18.918c1.736,1.739,3.293,2.812,3.44,2.91C14.609,21.943,14.805,22,15,22
		c0.213,0,0.427-0.068,0.604-0.203c0.146-0.109,1.681-1.293,3.396-3.099v7.815l-8,3.889V18.918z M27.997,30.438L21,26.551V16.343
		c1.354-1.795,2.52-3.882,2.879-6.047l3.659,2.03C27.74,12.414,28,12.791,28,13.07L27.997,30.438z M19,9
		c0-0.357-0.062-0.698-0.15-1.028V7.965l-0.021-0.14c-0.021-0.146-0.076-0.277-0.151-0.394C18.066,6.003,16.648,5,15,5
		c-2.206,0-4,1.794-4,4s1.794,4,4,4S19,11.206,19,9z M13,9c0-1.103,0.897-2,2-2c1.104,0,2,0.897,2,2s-0.896,2-2,2
		C13.897,11,13,10.103,13,9z"/>
</g>
</svg>
