<?xml version="1.0" encoding="utf-8"?>
<!-- Generator: Adobe Illustrator 16.0.0, SVG Export Plug-In . SVG Version: 6.00 Build 0)  -->
<!DOCTYPE svg PUBLIC "-//W3C//DTD SVG 1.1//EN" "http://www.w3.org/Graphics/SVG/1.1/DTD/svg11.dtd">
<svg version="1.1" id="Layer_1" xmlns="http://www.w3.org/2000/svg" xmlns:xlink="http://www.w3.org/1999/xlink" x="0px" y="0px"
	 width="226px" height="222px" viewBox="0 0 226 222" enable-background="new 0 0 226 222" xml:space="preserve">
<g>
	<defs>
		<rect id="SVGID_1_" width="226" height="222"/>
	</defs>
	<clipPath id="SVGID_2_">
		<use xlink:href="#SVGID_1_"  overflow="visible"/>
	</clipPath>
	<path clip-path="url(#SVGID_2_)" fill="#D1E6DE" d="M221,111c0,60.751-49.249,110-110,110S1,171.751,1,111S50.249,1,111,1
		S221,50.249,221,111"/>
	
		<circle clip-path="url(#SVGID_2_)" fill="none" stroke="#6CBE99" stroke-width="2" stroke-linecap="round" stroke-linejoin="round" stroke-miterlimit="1" cx="111" cy="111" r="110"/>
	<path clip-path="url(#SVGID_2_)" fill="#FFFFFF" d="M61,39.1C60.945,55.667,47.469,69.055,30.901,69
		C14.332,68.944,0.945,55.469,1,38.9C1.055,22.333,14.531,8.945,31.1,9C47.668,9.056,61.055,22.532,61,39.1"/>
	
		<circle clip-path="url(#SVGID_2_)" fill="none" stroke="#6CBE99" stroke-width="2" stroke-miterlimit="10" cx="31" cy="39" r="30"/>
	<path clip-path="url(#SVGID_2_)" fill="#FFFFFF" d="M70,181c0,16.569-13.431,30-30,30s-30-13.431-30-30s13.431-30,30-30
		S70,164.431,70,181"/>
	
		<circle clip-path="url(#SVGID_2_)" fill="none" stroke="#6CBE99" stroke-width="2" stroke-miterlimit="10" cx="40" cy="181" r="30"/>
	<path clip-path="url(#SVGID_2_)" fill="#FFFFFF" d="M215,34c0,16.569-13.431,30-30,30s-30-13.431-30-30s13.431-30,30-30
		S215,17.431,215,34"/>
	
		<circle clip-path="url(#SVGID_2_)" fill="none" stroke="#6CBE99" stroke-width="2" stroke-miterlimit="10" cx="185" cy="34" r="30"/>
	<path clip-path="url(#SVGID_2_)" fill="#FFFFFF" d="M225,168c0,16.569-13.431,30-30,30s-30-13.431-30-30s13.431-30,30-30
		S225,151.431,225,168"/>
	
		<circle clip-path="url(#SVGID_2_)" fill="none" stroke="#6CBE99" stroke-width="2" stroke-miterlimit="10" cx="195" cy="168" r="30"/>
	<g clip-path="url(#SVGID_2_)">
		<defs>
			<rect id="SVGID_3_" x="69" y="74" width="84" height="84"/>
		</defs>
		<clipPath id="SVGID_4_">
			<use xlink:href="#SVGID_3_"  overflow="visible"/>
		</clipPath>
		<g clip-path="url(#SVGID_4_)">
			<defs>
				<rect id="SVGID_5_" x="69" y="74" width="84" height="84"/>
			</defs>
			<clipPath id="SVGID_6_">
				<use xlink:href="#SVGID_5_"  overflow="visible"/>
			</clipPath>
			<path clip-path="url(#SVGID_6_)" fill="#FFFFFF" d="M153,81v0.16c0,0.54-0.22,1.05-0.61,1.43L117,121h-12L69.61,82.59
				C69.22,82.21,69,81.7,69,81.16V81h1h82.39H153z"/>
			<path clip-path="url(#SVGID_6_)" fill="#92D0B3" d="M153,76v5h-0.61H70h-1v-5c0-1.1,0.9-2,2-2h40h40C152.1,74,153,74.9,153,76"/>
			<path clip-path="url(#SVGID_6_)" fill="#92D0B3" d="M117,121v35c0,1.1-0.9,2-2,2h-4h-4c-1.1,0-2-0.9-2-2v-35H117z"/>
		</g>
	</g>
	
		<path clip-path="url(#SVGID_2_)" fill="none" stroke="#6CBE99" stroke-width="2" stroke-linecap="round" stroke-linejoin="round" stroke-miterlimit="10" d="
		M117,121v35c0,1.1-0.9,2-2,2h-4h-4c-1.1,0-2-0.9-2-2v-35L69.61,82.59C69.22,82.21,69,81.7,69,81.16V81v-5c0-1.1,0.9-2,2-2h40h40
		c1.1,0,2,0.9,2,2v5v0.16c0,0.54-0.22,1.05-0.61,1.43L117,121z"/>
	
		<line clip-path="url(#SVGID_2_)" fill="none" stroke="#6CBE99" stroke-width="2" stroke-linecap="round" stroke-linejoin="round" stroke-miterlimit="10" x1="70" y1="81" x2="152.39" y2="81"/>
	
		<line clip-path="url(#SVGID_2_)" fill="none" stroke="#6CBE99" stroke-width="2" stroke-linecap="round" stroke-linejoin="round" stroke-miterlimit="10" x1="105" y1="121" x2="117" y2="121"/>
	<g clip-path="url(#SVGID_2_)">
		<defs>
			<rect id="SVGID_7_" x="169.999" y="18" width="24.002" height="28"/>
		</defs>
		<clipPath id="SVGID_8_">
			<use xlink:href="#SVGID_7_"  overflow="visible"/>
		</clipPath>
		<g clip-path="url(#SVGID_8_)">
			<defs>
				<rect id="SVGID_9_" x="169.999" y="18" width="24.002" height="28"/>
			</defs>
			<clipPath id="SVGID_10_">
				<use xlink:href="#SVGID_9_"  overflow="visible"/>
			</clipPath>
			<path clip-path="url(#SVGID_10_)" fill="#FFFFFF" d="M185.52,35.1c0,1.5,0.311,2.14,1.471,2.73c-1.36,1.48-2.87,2.35-4.99,2.35
				s-3.59-0.89-4.95-2.37c1.13-0.58,1.44-1.23,1.44-2.71c0-1.46-2.63-1.77-2.63-4.5c0-1.8-0.86-0.9-0.86-2.7v-1.23
				c2.98-0.09,4.96-2.9,4.96-3.85c0,1.93,3.07,3.86,7.68,3.86c0.61,0,0.99-0.08,1.36-0.16v1.38c0,1.8-0.86,0.9-0.86,2.7
				C188.14,32.52,185.52,32.82,185.52,35.1"/>
			<path clip-path="url(#SVGID_10_)" fill="#D1E6DE" d="M189,23.4v3.12c-0.37,0.08-0.75,0.16-1.36,0.16
				c-4.609,0-7.68-1.93-7.68-3.86c0,0.95-1.979,3.76-4.96,3.85V23.4c0-1.44,1.59-5.4,7-5.4S189,21.96,189,23.4"/>
			<path clip-path="url(#SVGID_10_)" fill="#D1E6DE" d="M170,42.74c0-0.94-0.15-2.32,3.76-3.67c1.521-0.52,2.57-0.87,3.29-1.26
				c1.36,1.48,2.83,2.37,4.95,2.37s3.63-0.87,4.99-2.35c0.72,0.38,1.76,0.72,3.26,1.24c3.91,1.35,3.75,2.73,3.75,3.67v1.68
				c0,0.87-0.41,1.58-1.32,1.58H182h-10.68c-0.91,0-1.32-0.71-1.32-1.58V42.74z"/>
		</g>
	</g>
	
		<path clip-path="url(#SVGID_2_)" fill="none" stroke="#6CBE99" stroke-width="2" stroke-linecap="round" stroke-linejoin="round" stroke-miterlimit="10" d="
		M186.99,37.83c-1.16-0.59-1.471-1.23-1.471-2.73c0-2.28,2.62-2.58,2.62-4.5c0-1.8,0.86-0.9,0.86-2.7v-1.38V23.4
		c0-1.44-1.59-5.4-7-5.4s-7,3.96-7,5.4v3.27v1.23c0,1.8,0.86,0.9,0.86,2.7c0,2.73,2.63,3.04,2.63,4.5c0,1.48-0.311,2.13-1.44,2.71
		c-0.72,0.39-1.77,0.74-3.29,1.26c-3.91,1.35-3.76,2.73-3.76,3.67v1.68c0,0.87,0.41,1.58,1.32,1.58H182h10.68
		c0.91,0,1.32-0.71,1.32-1.58v-1.68c0-0.94,0.16-2.32-3.75-3.67C188.75,38.55,187.71,38.21,186.99,37.83z"/>
	
		<path clip-path="url(#SVGID_2_)" fill="none" stroke="#6CBE99" stroke-width="2" stroke-linecap="round" stroke-linejoin="round" stroke-miterlimit="10" d="
		M175,26.67c2.98-0.09,4.96-2.9,4.96-3.85c0,1.93,3.07,3.86,7.68,3.86c0.61,0,0.99-0.08,1.36-0.16"/>
	
		<path clip-path="url(#SVGID_2_)" fill="none" stroke="#6CBE99" stroke-width="2" stroke-linecap="round" stroke-linejoin="round" stroke-miterlimit="10" d="
		M177.02,37.78l0.03,0.03c1.36,1.48,2.83,2.37,4.95,2.37s3.63-0.87,4.99-2.35l0.02-0.02"/>
	<path clip-path="url(#SVGID_2_)" fill="#D1E6DE" d="M198.567,38c-0.269,0-0.519-0.266-0.708-0.467l-4.045-4.303
		c-1.159-1.191-1.159-3.136,0.004-4.33c0.564-0.58,1.316-0.9,2.117-0.9c0.8,0,1.552,0.32,2.117,0.9l0.517,0.644l0.497-0.619
		c0.587-0.605,1.34-0.925,2.14-0.925c0.801,0,1.553,0.32,2.116,0.9c1.164,1.194,1.164,3.139,0,4.335l-4.041,4.299
		C199.093,37.735,198.837,38,198.567,38"/>
	
		<path clip-path="url(#SVGID_2_)" fill="none" stroke="#6CBE99" stroke-width="2" stroke-linecap="round" stroke-linejoin="round" stroke-miterlimit="10" d="
		M198.567,38c-0.269,0-0.519-0.266-0.708-0.467l-4.045-4.303c-1.159-1.191-1.159-3.136,0.004-4.33c0.564-0.58,1.316-0.9,2.117-0.9
		c0.8,0,1.552,0.32,2.117,0.9l0.517,0.644l0.497-0.619c0.587-0.605,1.34-0.925,2.14-0.925c0.801,0,1.553,0.32,2.116,0.9
		c1.164,1.194,1.164,3.139,0,4.335l-4.041,4.299C199.093,37.735,198.837,38,198.567,38z"/>
	<path clip-path="url(#SVGID_2_)" fill="#D1E6DE" d="M205.5,180h-21c-0.828,0-1.5-0.672-1.5-1.5v-21c0-0.828,0.672-1.5,1.5-1.5h21
		c0.828,0,1.5,0.672,1.5,1.5v21C207,179.328,206.328,180,205.5,180"/>
	<path clip-path="url(#SVGID_2_)" fill="none" stroke="#6CBE99" stroke-width="2" stroke-miterlimit="10" d="M205.5,180h-21
		c-0.828,0-1.5-0.672-1.5-1.5v-21c0-0.828,0.672-1.5,1.5-1.5h21c0.828,0,1.5,0.672,1.5,1.5v21C207,179.328,206.328,180,205.5,180z"
		/>
	
		<polyline clip-path="url(#SVGID_2_)" fill="none" stroke="#6CBE99" stroke-width="2" stroke-linecap="round" stroke-miterlimit="10" points="
		189,168 193,172 202,163 	"/>
	
		<path clip-path="url(#SVGID_2_)" fill="none" stroke="#6CBE99" stroke-width="2" stroke-linecap="round" stroke-linejoin="round" stroke-miterlimit="10" d="
		M28.69,189.31C25.8,186.41,24,182.41,24,178s1.8-8.41,4.69-11.31"/>
	
		<path clip-path="url(#SVGID_2_)" fill="none" stroke="#6CBE99" stroke-width="2" stroke-linecap="round" stroke-linejoin="round" stroke-miterlimit="10" d="
		M51.31,166.69C54.2,169.59,56,173.59,56,178s-1.8,8.41-4.69,11.31"/>
	
		<path clip-path="url(#SVGID_2_)" fill="none" stroke="#6CBE99" stroke-width="2" stroke-linecap="round" stroke-linejoin="round" stroke-miterlimit="10" d="
		M32.93,185.07C31.12,183.26,30,180.76,30,178s1.12-5.26,2.93-7.07"/>
	
		<path clip-path="url(#SVGID_2_)" fill="none" stroke="#6CBE99" stroke-width="2" stroke-linecap="round" stroke-linejoin="round" stroke-miterlimit="10" d="
		M47.07,170.93C48.88,172.74,50,175.24,50,178s-1.12,5.26-2.93,7.07"/>
	<path clip-path="url(#SVGID_2_)" fill="#D1E6DE" d="M44,178c0,2.209-1.791,4-4,4s-4-1.791-4-4s1.791-4,4-4S44,175.791,44,178"/>
	
		<circle clip-path="url(#SVGID_2_)" fill="none" stroke="#6CBE99" stroke-width="2" stroke-miterlimit="10" cx="40" cy="178" r="4"/>
	
		<line clip-path="url(#SVGID_2_)" fill="none" stroke="#6CBE99" stroke-width="2" stroke-linecap="round" stroke-miterlimit="10" x1="40" y1="182" x2="40" y2="197"/>
	<g clip-path="url(#SVGID_2_)">
		<defs>
			<rect id="SVGID_11_" x="17" y="26" width="28" height="24"/>
		</defs>
		<clipPath id="SVGID_12_">
			<use xlink:href="#SVGID_11_"  overflow="visible"/>
		</clipPath>
		<g clip-path="url(#SVGID_12_)">
			<defs>
				<rect id="SVGID_13_" x="17" y="26" width="28" height="24"/>
			</defs>
			<clipPath id="SVGID_14_">
				<use xlink:href="#SVGID_13_"  overflow="visible"/>
			</clipPath>
			<path clip-path="url(#SVGID_14_)" fill="#D1E6DE" d="M45,30v18.5c0,0.83-0.67,1.5-1.5,1.5h-25c-0.83,0-1.5-0.67-1.5-1.5V30h4h4
				H45z"/>
			<path clip-path="url(#SVGID_14_)" fill="#FFFFFF" d="M45,27.5V30H25v-4h18.5C44.33,26,45,26.67,45,27.5"/>
			<rect x="21" y="26" clip-path="url(#SVGID_14_)" fill="#FFFFFF" width="4" height="4"/>
			<path clip-path="url(#SVGID_14_)" fill="#FFFFFF" d="M21,26v4h-4v-2.5c0-0.83,0.67-1.5,1.5-1.5H21z"/>
		</g>
	</g>
	
		<path clip-path="url(#SVGID_2_)" fill="none" stroke="#6CBE99" stroke-width="2" stroke-linecap="round" stroke-linejoin="round" stroke-miterlimit="10" d="
		M45,30v18.5c0,0.83-0.67,1.5-1.5,1.5h-25c-0.83,0-1.5-0.67-1.5-1.5V30v-2.5c0-0.83,0.67-1.5,1.5-1.5H21h4h18.5
		c0.83,0,1.5,0.67,1.5,1.5V30z"/>
	
		<polyline clip-path="url(#SVGID_2_)" fill="none" stroke="#6CBE99" stroke-width="2" stroke-linecap="round" stroke-linejoin="round" stroke-miterlimit="10" points="
		17,30 21,30 25,30 45,30 	"/>
	
		<line clip-path="url(#SVGID_2_)" fill="none" stroke="#6CBE99" stroke-width="2" stroke-linecap="round" stroke-linejoin="round" stroke-miterlimit="10" x1="21" y1="26" x2="21" y2="30"/>
	
		<line clip-path="url(#SVGID_2_)" fill="none" stroke="#6CBE99" stroke-width="2" stroke-linecap="round" stroke-linejoin="round" stroke-miterlimit="10" x1="25" y1="26" x2="25" y2="30"/>
	
		<line clip-path="url(#SVGID_2_)" fill="none" stroke="#6CBE99" stroke-width="2" stroke-linecap="round" stroke-linejoin="round" stroke-miterlimit="10" x1="28" y1="36" x2="39" y2="36"/>
	
		<line clip-path="url(#SVGID_2_)" fill="none" stroke="#6CBE99" stroke-width="2" stroke-linecap="round" stroke-linejoin="round" stroke-miterlimit="10" x1="23" y1="36" x2="24" y2="36"/>
	
		<line clip-path="url(#SVGID_2_)" fill="none" stroke="#6CBE99" stroke-width="2" stroke-linecap="round" stroke-linejoin="round" stroke-miterlimit="10" x1="28" y1="40" x2="39" y2="40"/>
	
		<line clip-path="url(#SVGID_2_)" fill="none" stroke="#6CBE99" stroke-width="2" stroke-linecap="round" stroke-linejoin="round" stroke-miterlimit="10" x1="23" y1="40" x2="24" y2="40"/>
	
		<line clip-path="url(#SVGID_2_)" fill="none" stroke="#6CBE99" stroke-width="2" stroke-linecap="round" stroke-linejoin="round" stroke-miterlimit="10" x1="28" y1="44" x2="39" y2="44"/>
	
		<line clip-path="url(#SVGID_2_)" fill="none" stroke="#6CBE99" stroke-width="2" stroke-linecap="round" stroke-linejoin="round" stroke-miterlimit="10" x1="23" y1="44" x2="24" y2="44"/>
</g>
</svg>
