<?xml version="1.0" encoding="utf-8"?>
<!-- Generator: Adobe Illustrator 16.0.0, SVG Export Plug-In . SVG Version: 6.00 Build 0)  -->
<!DOCTYPE svg PUBLIC "-//W3C//DTD SVG 1.1//EN" "http://www.w3.org/Graphics/SVG/1.1/DTD/svg11.dtd">
<svg version="1.1" id="Layer_1" xmlns="http://www.w3.org/2000/svg" xmlns:xlink="http://www.w3.org/1999/xlink" x="0px" y="0px"
	 width="233px" height="222px" viewBox="0 0 233 222" enable-background="new 0 0 233 222" xml:space="preserve">
<g>
	<defs>
		<rect id="SVGID_1_" width="233" height="222"/>
	</defs>
	<clipPath id="SVGID_2_">
		<use xlink:href="#SVGID_1_"  overflow="visible"/>
	</clipPath>
	<path clip-path="url(#SVGID_2_)" fill="#D1E6DE" d="M226,111c0,60.751-49.249,110-110,110S6,171.751,6,111S55.249,1,116,1
		S226,50.249,226,111"/>
	
		<circle clip-path="url(#SVGID_2_)" fill="none" stroke="#6CBE99" stroke-width="2" stroke-linecap="round" stroke-linejoin="round" stroke-miterlimit="1" cx="116" cy="111" r="110"/>
	<path clip-path="url(#SVGID_2_)" fill="#FFFFFF" d="M226,184c0,16.569-13.431,30-30,30s-30-13.431-30-30s13.431-30,30-30
		S226,167.431,226,184"/>
	
		<circle clip-path="url(#SVGID_2_)" fill="none" stroke="#6CBE99" stroke-width="2" stroke-miterlimit="10" cx="196" cy="184" r="30"/>
	<path clip-path="url(#SVGID_2_)" fill="#FFFFFF" d="M232,51c0,16.569-13.431,30-30,30s-30-13.431-30-30s13.431-30,30-30
		S232,34.431,232,51"/>
	
		<circle clip-path="url(#SVGID_2_)" fill="none" stroke="#6CBE99" stroke-width="2" stroke-miterlimit="10" cx="202" cy="51" r="30"/>
	<path clip-path="url(#SVGID_2_)" fill="#FFFFFF" d="M61,172c0,16.569-13.431,30-30,30S1,188.569,1,172s13.431-30,30-30
		S61,155.431,61,172"/>
	
		<circle clip-path="url(#SVGID_2_)" fill="none" stroke="#6CBE99" stroke-width="2" stroke-miterlimit="10" cx="31" cy="172" r="30"/>
	<g clip-path="url(#SVGID_2_)">
		<defs>
			<rect id="SVGID_3_" x="74" y="68" width="84" height="90"/>
		</defs>
		<clipPath id="SVGID_4_">
			<use xlink:href="#SVGID_3_"  overflow="visible"/>
		</clipPath>
		<g clip-path="url(#SVGID_4_)">
			<defs>
				<rect id="SVGID_5_" x="74" y="68" width="84" height="90"/>
			</defs>
			<clipPath id="SVGID_6_">
				<use xlink:href="#SVGID_5_"  overflow="visible"/>
			</clipPath>
			<path clip-path="url(#SVGID_6_)" fill="#FFFFFF" d="M158,98v57c0,1.66-1.34,3-3,3H77c-1.66,0-3-1.34-3-3V98v-4h84V98z M144,143.5
				v-5c0-0.83-0.67-1.5-1.5-1.5h-5c-0.83,0-1.5,0.67-1.5,1.5v5c0,0.83,0.67,1.5,1.5,1.5h5C143.33,145,144,144.33,144,143.5
				 M144,127.5v-5c0-0.83-0.67-1.5-1.5-1.5h-5c-0.83,0-1.5,0.67-1.5,1.5v5c0,0.83,0.67,1.5,1.5,1.5h5
				C143.33,129,144,128.33,144,127.5 M144,111.5v-5c0-0.83-0.67-1.5-1.5-1.5h-5c-0.83,0-1.5,0.67-1.5,1.5v5c0,0.83,0.67,1.5,1.5,1.5
				h5C143.33,113,144,112.33,144,111.5 M128,143.5v-5c0-0.83-0.67-1.5-1.5-1.5h-5c-0.83,0-1.5,0.67-1.5,1.5v5
				c0,0.83,0.67,1.5,1.5,1.5h5C127.33,145,128,144.33,128,143.5 M128,127.5v-5c0-0.83-0.67-1.5-1.5-1.5h-5c-0.83,0-1.5,0.67-1.5,1.5
				v5c0,0.83,0.67,1.5,1.5,1.5h5C127.33,129,128,128.33,128,127.5 M128,111.5v-5c0-0.83-0.67-1.5-1.5-1.5h-5
				c-0.83,0-1.5,0.67-1.5,1.5v5c0,0.83,0.67,1.5,1.5,1.5h5C127.33,113,128,112.33,128,111.5 M112,143.5v-5c0-0.83-0.67-1.5-1.5-1.5
				h-5c-0.83,0-1.5,0.67-1.5,1.5v5c0,0.83,0.67,1.5,1.5,1.5h5C111.33,145,112,144.33,112,143.5 M112,127.5v-5
				c0-0.83-0.67-1.5-1.5-1.5h-5c-0.83,0-1.5,0.67-1.5,1.5v5c0,0.83,0.67,1.5,1.5,1.5h5C111.33,129,112,128.33,112,127.5 M112,111.5
				v-5c0-0.83-0.67-1.5-1.5-1.5h-5c-0.83,0-1.5,0.67-1.5,1.5v5c0,0.83,0.67,1.5,1.5,1.5h5C111.33,113,112,112.33,112,111.5
				 M96,143.5v-5c0-0.83-0.67-1.5-1.5-1.5h-5c-0.83,0-1.5,0.67-1.5,1.5v5c0,0.83,0.67,1.5,1.5,1.5h5C95.33,145,96,144.33,96,143.5
				 M96,127.5v-5c0-0.83-0.67-1.5-1.5-1.5h-5c-0.83,0-1.5,0.67-1.5,1.5v5c0,0.83,0.67,1.5,1.5,1.5h5C95.33,129,96,128.33,96,127.5
				 M96,111.5v-5c0-0.83-0.67-1.5-1.5-1.5h-5c-0.83,0-1.5,0.67-1.5,1.5v5c0,0.83,0.67,1.5,1.5,1.5h5C95.33,113,96,112.33,96,111.5"
				/>
			<path clip-path="url(#SVGID_6_)" fill="#92D0B3" d="M158,77v17H74V77c0-1.66,1.34-3,3-3h7v4c0,1.1,0.45,2.1,1.17,2.83
				C85.9,81.55,86.9,82,88,82c2.21,0,4-1.79,4-4v-4h20v4c0,1.1,0.45,2.1,1.17,2.83C113.9,81.55,114.9,82,116,82c2.21,0,4-1.79,4-4
				v-4h20v4c0,1.1,0.45,2.1,1.17,2.83C141.9,81.55,142.9,82,144,82c2.21,0,4-1.79,4-4v-4h7C156.66,74,158,75.34,158,77"/>
			<path clip-path="url(#SVGID_6_)" fill="#D1E6DE" d="M148,74v4c0,2.21-1.79,4-4,4c-1.1,0-2.1-0.45-2.83-1.17
				C140.45,80.1,140,79.1,140,78v-4v-2c0-2.21,1.79-4,4-4c1.1,0,2.1,0.45,2.83,1.17C147.55,69.9,148,70.9,148,72V74z"/>
			<path clip-path="url(#SVGID_6_)" fill="#D1E6DE" d="M144,138.5v5c0,0.83-0.67,1.5-1.5,1.5h-5c-0.83,0-1.5-0.67-1.5-1.5v-5
				c0-0.83,0.67-1.5,1.5-1.5h5C143.33,137,144,137.67,144,138.5"/>
			<path clip-path="url(#SVGID_6_)" fill="#D1E6DE" d="M144,122.5v5c0,0.83-0.67,1.5-1.5,1.5h-5c-0.83,0-1.5-0.67-1.5-1.5v-5
				c0-0.83,0.67-1.5,1.5-1.5h5C143.33,121,144,121.67,144,122.5"/>
			<path clip-path="url(#SVGID_6_)" fill="#D1E6DE" d="M144,106.5v5c0,0.83-0.67,1.5-1.5,1.5h-5c-0.83,0-1.5-0.67-1.5-1.5v-5
				c0-0.83,0.67-1.5,1.5-1.5h5C143.33,105,144,105.67,144,106.5"/>
			<path clip-path="url(#SVGID_6_)" fill="#D1E6DE" d="M128,138.5v5c0,0.83-0.67,1.5-1.5,1.5h-5c-0.83,0-1.5-0.67-1.5-1.5v-5
				c0-0.83,0.67-1.5,1.5-1.5h5C127.33,137,128,137.67,128,138.5"/>
			<path clip-path="url(#SVGID_6_)" fill="#D1E6DE" d="M128,122.5v5c0,0.83-0.67,1.5-1.5,1.5h-5c-0.83,0-1.5-0.67-1.5-1.5v-5
				c0-0.83,0.67-1.5,1.5-1.5h5C127.33,121,128,121.67,128,122.5"/>
			<path clip-path="url(#SVGID_6_)" fill="#D1E6DE" d="M128,106.5v5c0,0.83-0.67,1.5-1.5,1.5h-5c-0.83,0-1.5-0.67-1.5-1.5v-5
				c0-0.83,0.67-1.5,1.5-1.5h5C127.33,105,128,105.67,128,106.5"/>
			<path clip-path="url(#SVGID_6_)" fill="#D1E6DE" d="M120,74v4c0,2.21-1.79,4-4,4c-1.1,0-2.1-0.45-2.83-1.17
				C112.45,80.1,112,79.1,112,78v-4v-2c0-2.21,1.79-4,4-4c1.1,0,2.1,0.45,2.83,1.17C119.55,69.9,120,70.9,120,72V74z"/>
			<path clip-path="url(#SVGID_6_)" fill="#D1E6DE" d="M112,138.5v5c0,0.83-0.67,1.5-1.5,1.5h-5c-0.83,0-1.5-0.67-1.5-1.5v-5
				c0-0.83,0.67-1.5,1.5-1.5h5C111.33,137,112,137.67,112,138.5"/>
			<path clip-path="url(#SVGID_6_)" fill="#D1E6DE" d="M112,122.5v5c0,0.83-0.67,1.5-1.5,1.5h-5c-0.83,0-1.5-0.67-1.5-1.5v-5
				c0-0.83,0.67-1.5,1.5-1.5h5C111.33,121,112,121.67,112,122.5"/>
			<path clip-path="url(#SVGID_6_)" fill="#D1E6DE" d="M112,106.5v5c0,0.83-0.67,1.5-1.5,1.5h-5c-0.83,0-1.5-0.67-1.5-1.5v-5
				c0-0.83,0.67-1.5,1.5-1.5h5C111.33,105,112,105.67,112,106.5"/>
			<path clip-path="url(#SVGID_6_)" fill="#D1E6DE" d="M96,138.5v5c0,0.83-0.67,1.5-1.5,1.5h-5c-0.83,0-1.5-0.67-1.5-1.5v-5
				c0-0.83,0.67-1.5,1.5-1.5h5C95.33,137,96,137.67,96,138.5"/>
			<path clip-path="url(#SVGID_6_)" fill="#D1E6DE" d="M96,122.5v5c0,0.83-0.67,1.5-1.5,1.5h-5c-0.83,0-1.5-0.67-1.5-1.5v-5
				c0-0.83,0.67-1.5,1.5-1.5h5C95.33,121,96,121.67,96,122.5"/>
			<path clip-path="url(#SVGID_6_)" fill="#D1E6DE" d="M96,106.5v5c0,0.83-0.67,1.5-1.5,1.5h-5c-0.83,0-1.5-0.67-1.5-1.5v-5
				c0-0.83,0.67-1.5,1.5-1.5h5C95.33,105,96,105.67,96,106.5"/>
			<path clip-path="url(#SVGID_6_)" fill="#D1E6DE" d="M92,74v4c0,2.21-1.79,4-4,4c-1.1,0-2.1-0.45-2.83-1.17
				C84.45,80.1,84,79.1,84,78v-4v-2c0-2.21,1.79-4,4-4c1.1,0,2.1,0.45,2.83,1.17C91.55,69.9,92,70.9,92,72V74z"/>
		</g>
	</g>
	
		<line clip-path="url(#SVGID_2_)" fill="none" stroke="#6CBE99" stroke-width="2" stroke-linecap="round" stroke-linejoin="round" stroke-miterlimit="10" x1="112" y1="74" x2="92" y2="74"/>
	
		<line clip-path="url(#SVGID_2_)" fill="none" stroke="#6CBE99" stroke-width="2" stroke-linecap="round" stroke-linejoin="round" stroke-miterlimit="10" x1="140" y1="74" x2="120" y2="74"/>
	
		<path clip-path="url(#SVGID_2_)" fill="none" stroke="#6CBE99" stroke-width="2" stroke-linecap="round" stroke-linejoin="round" stroke-miterlimit="10" d="
		M148,74h7c1.66,0,3,1.34,3,3v17v4v57c0,1.66-1.34,3-3,3H77c-1.66,0-3-1.34-3-3V98v-4V77c0-1.66,1.34-3,3-3h7"/>
	
		<line clip-path="url(#SVGID_2_)" fill="none" stroke="#6CBE99" stroke-width="2" stroke-linecap="round" stroke-linejoin="round" stroke-miterlimit="10" x1="74" y1="94" x2="158" y2="94"/>
	
		<path clip-path="url(#SVGID_2_)" fill="none" stroke="#6CBE99" stroke-width="2" stroke-linecap="round" stroke-linejoin="round" stroke-miterlimit="10" d="
		M92,74v4c0,2.21-1.79,4-4,4c-1.1,0-2.1-0.45-2.83-1.17C84.45,80.1,84,79.1,84,78v-4v-2c0-2.21,1.79-4,4-4c1.1,0,2.1,0.45,2.83,1.17
		C91.55,69.9,92,70.9,92,72V74z"/>
	
		<path clip-path="url(#SVGID_2_)" fill="none" stroke="#6CBE99" stroke-width="2" stroke-linecap="round" stroke-linejoin="round" stroke-miterlimit="10" d="
		M148,74v4c0,2.21-1.79,4-4,4c-1.1,0-2.1-0.45-2.83-1.17C140.45,80.1,140,79.1,140,78v-4v-2c0-2.21,1.79-4,4-4
		c1.1,0,2.1,0.45,2.83,1.17C147.55,69.9,148,70.9,148,72V74z"/>
	
		<path clip-path="url(#SVGID_2_)" fill="none" stroke="#6CBE99" stroke-width="2" stroke-linecap="round" stroke-linejoin="round" stroke-miterlimit="10" d="
		M120,74v4c0,2.21-1.79,4-4,4c-1.1,0-2.1-0.45-2.83-1.17C112.45,80.1,112,79.1,112,78v-4v-2c0-2.21,1.79-4,4-4
		c1.1,0,2.1,0.45,2.83,1.17C119.55,69.9,120,70.9,120,72V74z"/>
	
		<path clip-path="url(#SVGID_2_)" fill="none" stroke="#6CBE99" stroke-width="2" stroke-linecap="round" stroke-linejoin="round" stroke-miterlimit="10" d="
		M94.5,113h-5c-0.83,0-1.5-0.67-1.5-1.5v-5c0-0.83,0.67-1.5,1.5-1.5h5c0.83,0,1.5,0.67,1.5,1.5v5C96,112.33,95.33,113,94.5,113z"/>
	
		<path clip-path="url(#SVGID_2_)" fill="none" stroke="#6CBE99" stroke-width="2" stroke-linecap="round" stroke-linejoin="round" stroke-miterlimit="10" d="
		M110.5,113h-5c-0.83,0-1.5-0.67-1.5-1.5v-5c0-0.83,0.67-1.5,1.5-1.5h5c0.83,0,1.5,0.67,1.5,1.5v5C112,112.33,111.33,113,110.5,113z
		"/>
	
		<path clip-path="url(#SVGID_2_)" fill="none" stroke="#6CBE99" stroke-width="2" stroke-linecap="round" stroke-linejoin="round" stroke-miterlimit="10" d="
		M126.5,113h-5c-0.83,0-1.5-0.67-1.5-1.5v-5c0-0.83,0.67-1.5,1.5-1.5h5c0.83,0,1.5,0.67,1.5,1.5v5C128,112.33,127.33,113,126.5,113z
		"/>
	
		<path clip-path="url(#SVGID_2_)" fill="none" stroke="#6CBE99" stroke-width="2" stroke-linecap="round" stroke-linejoin="round" stroke-miterlimit="10" d="
		M142.5,113h-5c-0.83,0-1.5-0.67-1.5-1.5v-5c0-0.83,0.67-1.5,1.5-1.5h5c0.83,0,1.5,0.67,1.5,1.5v5C144,112.33,143.33,113,142.5,113z
		"/>
	
		<path clip-path="url(#SVGID_2_)" fill="none" stroke="#6CBE99" stroke-width="2" stroke-linecap="round" stroke-linejoin="round" stroke-miterlimit="10" d="
		M94.5,129h-5c-0.83,0-1.5-0.67-1.5-1.5v-5c0-0.83,0.67-1.5,1.5-1.5h5c0.83,0,1.5,0.67,1.5,1.5v5C96,128.33,95.33,129,94.5,129z"/>
	
		<path clip-path="url(#SVGID_2_)" fill="none" stroke="#6CBE99" stroke-width="2" stroke-linecap="round" stroke-linejoin="round" stroke-miterlimit="10" d="
		M110.5,129h-5c-0.83,0-1.5-0.67-1.5-1.5v-5c0-0.83,0.67-1.5,1.5-1.5h5c0.83,0,1.5,0.67,1.5,1.5v5C112,128.33,111.33,129,110.5,129z
		"/>
	
		<path clip-path="url(#SVGID_2_)" fill="none" stroke="#6CBE99" stroke-width="2" stroke-linecap="round" stroke-linejoin="round" stroke-miterlimit="10" d="
		M126.5,129h-5c-0.83,0-1.5-0.67-1.5-1.5v-5c0-0.83,0.67-1.5,1.5-1.5h5c0.83,0,1.5,0.67,1.5,1.5v5C128,128.33,127.33,129,126.5,129z
		"/>
	
		<path clip-path="url(#SVGID_2_)" fill="none" stroke="#6CBE99" stroke-width="2" stroke-linecap="round" stroke-linejoin="round" stroke-miterlimit="10" d="
		M142.5,129h-5c-0.83,0-1.5-0.67-1.5-1.5v-5c0-0.83,0.67-1.5,1.5-1.5h5c0.83,0,1.5,0.67,1.5,1.5v5C144,128.33,143.33,129,142.5,129z
		"/>
	
		<path clip-path="url(#SVGID_2_)" fill="none" stroke="#6CBE99" stroke-width="2" stroke-linecap="round" stroke-linejoin="round" stroke-miterlimit="10" d="
		M94.5,145h-5c-0.83,0-1.5-0.67-1.5-1.5v-5c0-0.83,0.67-1.5,1.5-1.5h5c0.83,0,1.5,0.67,1.5,1.5v5C96,144.33,95.33,145,94.5,145z"/>
	
		<path clip-path="url(#SVGID_2_)" fill="none" stroke="#6CBE99" stroke-width="2" stroke-linecap="round" stroke-linejoin="round" stroke-miterlimit="10" d="
		M110.5,145h-5c-0.83,0-1.5-0.67-1.5-1.5v-5c0-0.83,0.67-1.5,1.5-1.5h5c0.83,0,1.5,0.67,1.5,1.5v5C112,144.33,111.33,145,110.5,145z
		"/>
	
		<path clip-path="url(#SVGID_2_)" fill="none" stroke="#6CBE99" stroke-width="2" stroke-linecap="round" stroke-linejoin="round" stroke-miterlimit="10" d="
		M126.5,145h-5c-0.83,0-1.5-0.67-1.5-1.5v-5c0-0.83,0.67-1.5,1.5-1.5h5c0.83,0,1.5,0.67,1.5,1.5v5C128,144.33,127.33,145,126.5,145z
		"/>
	
		<path clip-path="url(#SVGID_2_)" fill="none" stroke="#6CBE99" stroke-width="2" stroke-linecap="round" stroke-linejoin="round" stroke-miterlimit="10" d="
		M142.5,145h-5c-0.83,0-1.5-0.67-1.5-1.5v-5c0-0.83,0.67-1.5,1.5-1.5h5c0.83,0,1.5,0.67,1.5,1.5v5C144,144.33,143.33,145,142.5,145z
		"/>
	<path clip-path="url(#SVGID_2_)" fill="#D1E6DE" d="M16.954,168.046C16.954,159.972,22.925,154,31,154
		c8.075,0,14.046,5.972,14.046,14.046C45.046,179.01,31,191,31,191S16.954,180.229,16.954,168.046"/>
	
		<path clip-path="url(#SVGID_2_)" fill="none" stroke="#6CBE99" stroke-width="2" stroke-linecap="round" stroke-linejoin="round" stroke-miterlimit="10" d="
		M16.954,168.046C16.954,159.972,22.925,154,31,154c8.075,0,14.046,5.972,14.046,14.046C45.046,179.01,31,191,31,191
		S16.954,180.229,16.954,168.046z"/>
	<path clip-path="url(#SVGID_2_)" fill="#FFFFFF" d="M25.08,168.06c0-3.269,2.65-5.92,5.92-5.92s5.92,2.651,5.92,5.92
		c0,3.27-2.65,5.921-5.92,5.921S25.08,171.329,25.08,168.06"/>
	
		<circle clip-path="url(#SVGID_2_)" fill="none" stroke="#6CBE99" stroke-width="2" stroke-miterlimit="10" cx="31" cy="168.06" r="5.92"/>
	<path clip-path="url(#SVGID_2_)" fill="#D1E6DE" d="M209,184c0,7.18-5.82,13-13,13s-13-5.82-13-13s5.82-13,13-13
		S209,176.82,209,184"/>
	
		<circle clip-path="url(#SVGID_2_)" fill="none" stroke="#6CBE99" stroke-width="2" stroke-miterlimit="10" cx="196" cy="184" r="13"/>
	<path clip-path="url(#SVGID_2_)" fill="#D1E6DE" d="M186.5,192.87c2.17-2.32,3.5-5.44,3.5-8.87s-1.33-6.55-3.5-8.87"/>
	<path clip-path="url(#SVGID_2_)" fill="none" stroke="#6CBE99" stroke-width="2" stroke-miterlimit="10" d="M186.5,192.87
		c2.17-2.32,3.5-5.44,3.5-8.87s-1.33-6.55-3.5-8.87"/>
	<path clip-path="url(#SVGID_2_)" fill="#D1E6DE" d="M205.5,192.87c-2.17-2.32-3.5-5.44-3.5-8.87s1.33-6.55,3.5-8.87"/>
	<path clip-path="url(#SVGID_2_)" fill="none" stroke="#6CBE99" stroke-width="2" stroke-miterlimit="10" d="M205.5,192.87
		c-2.17-2.32-3.5-5.44-3.5-8.87s1.33-6.55,3.5-8.87"/>
	<path clip-path="url(#SVGID_2_)" fill="#D1E6DE" d="M215.5,64h-27c-0.828,0-1.5-0.672-1.5-1.5v-19c0-0.828,0.672-1.5,1.5-1.5h27
		c0.828,0,1.5,0.672,1.5,1.5v19C217,63.328,216.328,64,215.5,64"/>
	<path clip-path="url(#SVGID_2_)" fill="none" stroke="#6CBE99" stroke-width="2" stroke-miterlimit="10" d="M215.5,64h-27
		c-0.828,0-1.5-0.672-1.5-1.5v-19c0-0.828,0.672-1.5,1.5-1.5h27c0.828,0,1.5,0.672,1.5,1.5v19C217,63.328,216.328,64,215.5,64z"/>
	<path clip-path="url(#SVGID_2_)" fill="none" stroke="#6CBE99" stroke-width="2" stroke-miterlimit="10" d="M206,42h-8v-4
		c0-1.105,0.895-2,2-2h4c1.105,0,2,0.895,2,2V42z"/>
	<polygon clip-path="url(#SVGID_2_)" fill="none" stroke="#6CBE99" stroke-width="2" stroke-miterlimit="10" points="192,63 192,63 
		192,42 	"/>
	<polygon clip-path="url(#SVGID_2_)" fill="none" stroke="#6CBE99" stroke-width="2" stroke-miterlimit="10" points="212,63 212,63 
		212,42 	"/>
	<path clip-path="url(#SVGID_2_)" fill="#FFFFFF" d="M79,34c0,16.569-13.431,30-30,30S19,50.569,19,34S32.431,4,49,4
		S79,17.431,79,34"/>
	
		<circle clip-path="url(#SVGID_2_)" fill="none" stroke="#6CBE99" stroke-width="2" stroke-miterlimit="10" cx="49" cy="34" r="30"/>
	<g clip-path="url(#SVGID_2_)">
		<defs>
			<rect id="SVGID_7_" x="37.583" y="20.996" width="24.4" height="28.01"/>
		</defs>
		<clipPath id="SVGID_8_">
			<use xlink:href="#SVGID_7_"  overflow="visible"/>
		</clipPath>
		<g clip-path="url(#SVGID_8_)">
			<defs>
				<rect id="SVGID_9_" x="37.583" y="20.996" width="24.4" height="28.01"/>
			</defs>
			<clipPath id="SVGID_10_">
				<use xlink:href="#SVGID_9_"  overflow="visible"/>
			</clipPath>
			<polygon clip-path="url(#SVGID_10_)" fill="#D1E6DE" points="61.983,39.006 59.983,37.486 59.983,45.006 59.983,49.006 
				51.994,49.006 51.994,42.006 45.994,42.006 45.994,49.006 38.003,49.006 38.003,47.006 38.003,38.326 37.583,37.787 
				42.184,34.247 48.994,29.006 55.804,34.247 			"/>
			<polygon clip-path="url(#SVGID_10_)" fill="#D1E6DE" points="55.983,32.247 55.983,34.006 55.804,34.247 48.994,29.006 
				42.184,34.247 42.003,34.006 42.003,30.247 42.003,26.446 48.994,20.997 55.983,26.446 			"/>
			<rect x="45.994" y="42.006" clip-path="url(#SVGID_10_)" fill="#FFFFFF" width="6" height="7"/>
		</g>
	</g>
	
		<polyline clip-path="url(#SVGID_2_)" fill="none" stroke="#6CBE99" stroke-width="2" stroke-linecap="round" stroke-linejoin="round" stroke-miterlimit="10" points="
		40.003,28.006 42.003,26.446 48.994,20.997 55.983,26.446 57.983,28.006 	"/>
	<polyline clip-path="url(#SVGID_2_)" fill="none" stroke="#6CBE99" stroke-width="2" stroke-miterlimit="10" points="
		42.003,26.006 42.003,26.446 42.003,30.247 42.003,34.006 	"/>
	<polyline clip-path="url(#SVGID_2_)" fill="none" stroke="#6CBE99" stroke-width="2" stroke-miterlimit="10" points="
		55.983,26.006 55.983,26.446 55.983,32.247 55.983,34.006 	"/>
	
		<polyline clip-path="url(#SVGID_2_)" fill="none" stroke="#6CBE99" stroke-width="2" stroke-linecap="round" stroke-linejoin="round" stroke-miterlimit="10" points="
		51.994,49.006 59.983,49.006 59.983,45.006 59.983,37.486 61.983,39.006 55.804,34.247 48.994,29.006 42.184,34.247 37.583,37.787 
		36.003,39.006 	"/>
	
		<polyline clip-path="url(#SVGID_2_)" fill="none" stroke="#6CBE99" stroke-width="2" stroke-linecap="round" stroke-linejoin="round" stroke-miterlimit="10" points="
		38.003,38.326 38.003,47.006 38.003,49.006 45.994,49.006 	"/>
	
		<rect x="45.994" y="42.006" clip-path="url(#SVGID_2_)" fill="none" stroke="#6CBE99" stroke-width="2" stroke-linecap="round" stroke-linejoin="round" stroke-miterlimit="10" width="6" height="7"/>
	
		<line clip-path="url(#SVGID_2_)" fill="none" stroke="#6CBE99" stroke-width="2" stroke-linecap="round" stroke-linejoin="round" stroke-miterlimit="10" x1="48.994" y1="20.997" x2="48.994" y2="14.997"/>
	<rect x="48.994" y="15" clip-path="url(#SVGID_2_)" fill="#FFFFFF" width="5" height="4"/>
	
		<rect x="48.994" y="15" clip-path="url(#SVGID_2_)" fill="none" stroke="#6CBE99" stroke-width="2" stroke-linecap="round" stroke-linejoin="round" stroke-miterlimit="10" width="5" height="4"/>
</g>
</svg>
