<?xml version="1.0" encoding="utf-8"?>
<!-- Generator: Adobe Illustrator 16.0.0, SVG Export Plug-In . SVG Version: 6.00 Build 0)  -->
<!DOCTYPE svg PUBLIC "-//W3C//DTD SVG 1.1//EN" "http://www.w3.org/Graphics/SVG/1.1/DTD/svg11.dtd">
<svg version="1.1" id="Layer_1" xmlns="http://www.w3.org/2000/svg" xmlns:xlink="http://www.w3.org/1999/xlink" x="0px" y="0px"
	 width="222px" height="222px" viewBox="0 0 222 222" enable-background="new 0 0 222 222" xml:space="preserve">
<g>
	<defs>
		<rect id="SVGID_1_" width="222" height="222"/>
	</defs>
	<clipPath id="SVGID_2_">
		<use xlink:href="#SVGID_1_"  overflow="visible"/>
	</clipPath>
	<path clip-path="url(#SVGID_2_)" fill="#D1E6DE" d="M221,111c0,60.751-49.249,110-110,110S1,171.751,1,111S50.249,1,111,1
		S221,50.249,221,111"/>
	
		<circle clip-path="url(#SVGID_2_)" fill="none" stroke="#6CBE99" stroke-width="2" stroke-linecap="round" stroke-linejoin="round" stroke-miterlimit="1" cx="111" cy="111" r="110"/>
	<path clip-path="url(#SVGID_2_)" fill="#FFFFFF" d="M218,183c0,16.569-13.431,30-30,30s-30-13.431-30-30s13.431-30,30-30
		S218,166.431,218,183"/>
	
		<circle clip-path="url(#SVGID_2_)" fill="none" stroke="#6CBE99" stroke-width="2" stroke-miterlimit="10" cx="188" cy="183" r="30"/>
	<path clip-path="url(#SVGID_2_)" fill="#FFFFFF" d="M219,45c0,16.569-13.431,30-30,30s-30-13.431-30-30s13.431-30,30-30
		S219,28.431,219,45"/>
	
		<circle clip-path="url(#SVGID_2_)" fill="none" stroke="#6CBE99" stroke-width="2" stroke-miterlimit="10" cx="189" cy="45" r="30"/>
	<path clip-path="url(#SVGID_2_)" fill="#FFFFFF" d="M64,184c0,16.569-13.431,30-30,30S4,200.569,4,184s13.431-30,30-30
		S64,167.431,64,184"/>
	
		<circle clip-path="url(#SVGID_2_)" fill="none" stroke="#6CBE99" stroke-width="2" stroke-miterlimit="10" cx="34" cy="184" r="30"/>
	<path clip-path="url(#SVGID_2_)" fill="#FFFFFF" d="M64,42c0,16.569-13.431,30-30,30S4,58.569,4,42s13.431-30,30-30
		S64,25.431,64,42"/>
	
		<circle clip-path="url(#SVGID_2_)" fill="none" stroke="#6CBE99" stroke-width="2" stroke-miterlimit="10" cx="34" cy="42" r="30"/>
	<path clip-path="url(#SVGID_2_)" fill="#FFFFFF" d="M59.632,87.155C70.814,85.851,79.5,76,79.5,65h63
		c0,11,8.687,20.85,19.867,22.155c-1.575,17.189-9.652,63.449-51.367,83.407C69.285,150.604,61.208,104.345,59.632,87.155"/>
	
		<path clip-path="url(#SVGID_2_)" fill="none" stroke="#6CBE99" stroke-width="2" stroke-linecap="round" stroke-linejoin="round" stroke-miterlimit="10" d="
		M59.632,87.155C70.814,85.851,79.5,76,79.5,65h63c0,11,8.687,20.85,19.867,22.155c-1.575,17.189-9.652,63.449-51.367,83.407
		C69.285,150.604,61.208,104.345,59.632,87.155z"/>
	<path clip-path="url(#SVGID_2_)" fill="#92D0B3" d="M111,161.583c-14.554-7.916-25.8-20.378-33.464-37.097
		c-5.341-11.65-7.904-23.195-9.133-31.417C77.089,89.5,83.817,81.986,86.378,73h49.244c2.561,8.986,9.289,16.5,17.975,20.069
		c-1.229,8.222-3.792,19.767-9.133,31.417C136.8,141.205,125.554,153.667,111,161.583"/>
	
		<path clip-path="url(#SVGID_2_)" fill="none" stroke="#6CBE99" stroke-width="2" stroke-linecap="round" stroke-linejoin="round" stroke-miterlimit="10" d="
		M111,161.583c-14.554-7.916-25.8-20.378-33.464-37.097c-5.341-11.65-7.904-23.195-9.133-31.417
		C77.089,89.5,83.817,81.986,86.378,73h49.244c2.561,8.986,9.289,16.5,17.975,20.069c-1.229,8.222-3.792,19.767-9.133,31.417
		C136.8,141.205,125.554,153.667,111,161.583z"/>
	<polygon clip-path="url(#SVGID_2_)" fill="#FFFFFF" points="81.681,96.597 92.343,96.597 92.343,99.397 84.761,99.397 
		84.761,102.378 91.443,102.378 91.443,105.179 84.761,105.179 84.761,110.6 81.681,110.6 	"/>
	<path clip-path="url(#SVGID_2_)" fill="#FFFFFF" d="M94.181,103.639v-0.04c0-3.981,3.141-7.242,7.461-7.242
		c4.321,0,7.422,3.221,7.422,7.202v0.04c0,3.981-3.141,7.242-7.462,7.242C97.281,110.841,94.181,107.62,94.181,103.639
		 M105.843,103.639v-0.04c0-2.4-1.761-4.401-4.241-4.401c-2.481,0-4.2,1.961-4.2,4.361v0.04c0,2.4,1.759,4.401,4.24,4.401
		C104.122,108,105.843,106.039,105.843,103.639"/>
	<polygon clip-path="url(#SVGID_2_)" fill="#FFFFFF" points="111.001,96.597 114.321,96.597 118.002,102.518 121.683,96.597 
		125.004,96.597 125.004,110.6 121.943,110.6 121.943,101.458 118.002,107.439 117.922,107.439 114.022,101.518 114.022,110.6 
		111.001,110.6 	"/>
	<path clip-path="url(#SVGID_2_)" fill="#FFFFFF" d="M126.941,103.639v-0.04c0-3.981,3.141-7.242,7.461-7.242
		c4.321,0,7.422,3.221,7.422,7.202v0.04c0,3.981-3.141,7.242-7.462,7.242S126.941,107.62,126.941,103.639 M138.604,103.639v-0.04
		c0-2.4-1.761-4.401-4.241-4.401s-4.2,1.961-4.2,4.361v0.04c0,2.4,1.76,4.401,4.24,4.401S138.604,106.039,138.604,103.639"/>
	
		<line clip-path="url(#SVGID_2_)" fill="none" stroke="#6CBE99" stroke-width="2" stroke-miterlimit="10" x1="174" y1="51" x2="184" y2="40"/>
	
		<line clip-path="url(#SVGID_2_)" fill="none" stroke="#6CBE99" stroke-width="2" stroke-miterlimit="10" x1="184" y1="40" x2="194" y2="50"/>
	
		<line clip-path="url(#SVGID_2_)" fill="none" stroke="#6CBE99" stroke-width="2" stroke-miterlimit="10" x1="194" y1="50" x2="204" y2="38"/>
	<path clip-path="url(#SVGID_2_)" fill="#D1E6DE" d="M178,51c0,2.209-1.791,4-4,4s-4-1.791-4-4s1.791-4,4-4S178,48.791,178,51"/>
	
		<circle clip-path="url(#SVGID_2_)" fill="none" stroke="#6CBE99" stroke-width="2" stroke-miterlimit="10" cx="174" cy="51" r="4"/>
	<path clip-path="url(#SVGID_2_)" fill="#D1E6DE" d="M188,40c0,2.209-1.791,4-4,4s-4-1.791-4-4s1.791-4,4-4S188,37.791,188,40"/>
	
		<circle clip-path="url(#SVGID_2_)" fill="none" stroke="#6CBE99" stroke-width="2" stroke-miterlimit="10" cx="184" cy="40" r="4"/>
	<path clip-path="url(#SVGID_2_)" fill="#D1E6DE" d="M198,50c0,2.209-1.791,4-4,4s-4-1.791-4-4s1.791-4,4-4S198,47.791,198,50"/>
	
		<circle clip-path="url(#SVGID_2_)" fill="none" stroke="#6CBE99" stroke-width="2" stroke-miterlimit="10" cx="194" cy="50" r="4"/>
	<path clip-path="url(#SVGID_2_)" fill="#D1E6DE" d="M208,38c0,2.209-1.791,4-4,4s-4-1.791-4-4s1.791-4,4-4S208,35.791,208,38"/>
	
		<circle clip-path="url(#SVGID_2_)" fill="none" stroke="#6CBE99" stroke-width="2" stroke-miterlimit="10" cx="204" cy="38" r="4"/>
	<g clip-path="url(#SVGID_2_)">
		<defs>
			<rect id="SVGID_3_" x="19" y="172" width="28" height="26"/>
		</defs>
		<clipPath id="SVGID_4_">
			<use xlink:href="#SVGID_3_"  overflow="visible"/>
		</clipPath>
		<g clip-path="url(#SVGID_4_)">
			<defs>
				<rect id="SVGID_5_" x="19" y="172" width="28" height="26"/>
			</defs>
			<clipPath id="SVGID_6_">
				<use xlink:href="#SVGID_5_"  overflow="visible"/>
			</clipPath>
			<path clip-path="url(#SVGID_6_)" fill="#FFFFFF" d="M47,178v18.5c0,0.83-0.67,1.5-1.5,1.5h-25c-0.83,0-1.5-0.67-1.5-1.5V178H47z"
				/>
			<path clip-path="url(#SVGID_6_)" fill="#92D0B3" d="M47,173.5v4.5H19v-4.5c0-0.83,0.67-1.5,1.5-1.5h25
				C46.33,172,47,172.67,47,173.5"/>
		</g>
	</g>
	<path clip-path="url(#SVGID_2_)" fill="none" stroke="#6CBE99" stroke-width="2" stroke-miterlimit="10" d="M47,178v18.5
		c0,0.83-0.67,1.5-1.5,1.5h-25c-0.83,0-1.5-0.67-1.5-1.5V178v-4.5c0-0.83,0.67-1.5,1.5-1.5h25c0.83,0,1.5,0.67,1.5,1.5V178z"/>
	
		<line clip-path="url(#SVGID_2_)" fill="none" stroke="#6CBE99" stroke-width="2" stroke-miterlimit="10" x1="19" y1="178" x2="47" y2="178"/>
	
		<polyline clip-path="url(#SVGID_2_)" fill="none" stroke="#6CBE99" stroke-width="2" stroke-linecap="round" stroke-linejoin="round" stroke-miterlimit="10" points="
		28,187 31.5,190.5 39,183 	"/>
	<path clip-path="url(#SVGID_2_)" fill="#FFFFFF" d="M26.02,175h-0.04c-1.094,0-1.98-0.886-1.98-1.98v-2.039
		c0-1.095,0.886-1.98,1.98-1.98h0.04c1.094,0,1.98,0.886,1.98,1.98v2.039C28,174.114,27.114,175,26.02,175"/>
	
		<path clip-path="url(#SVGID_2_)" fill="none" stroke="#6CBE99" stroke-width="2" stroke-linecap="round" stroke-linejoin="round" stroke-miterlimit="10" d="
		M26.02,175h-0.04c-1.094,0-1.98-0.886-1.98-1.98v-2.039c0-1.095,0.886-1.98,1.98-1.98h0.04c1.094,0,1.98,0.886,1.98,1.98v2.039
		C28,174.114,27.114,175,26.02,175z"/>
	<path clip-path="url(#SVGID_2_)" fill="#FFFFFF" d="M40.02,175h-0.04c-1.094,0-1.98-0.886-1.98-1.98v-2.039
		c0-1.095,0.886-1.98,1.98-1.98h0.04c1.094,0,1.98,0.886,1.98,1.98v2.039C42,174.114,41.114,175,40.02,175"/>
	
		<path clip-path="url(#SVGID_2_)" fill="none" stroke="#6CBE99" stroke-width="2" stroke-linecap="round" stroke-linejoin="round" stroke-miterlimit="10" d="
		M40.02,175h-0.04c-1.094,0-1.98-0.886-1.98-1.98v-2.039c0-1.095,0.886-1.98,1.98-1.98h0.04c1.094,0,1.98,0.886,1.98,1.98v2.039
		C42,174.114,41.114,175,40.02,175z"/>
	<path clip-path="url(#SVGID_2_)" fill="#D1E6DE" d="M21.33,49.03L20,55l5.48-2.44C28.07,54.1,31.17,55,34.5,55
		C43.61,55,51,48.28,51,40s-7.39-15-16.5-15S18,31.72,18,40C18,43.39,19.24,46.52,21.33,49.03"/>
	
		<path clip-path="url(#SVGID_2_)" fill="none" stroke="#6CBE99" stroke-width="2" stroke-linecap="round" stroke-linejoin="round" stroke-miterlimit="10" d="
		M21.33,49.03L20,55l5.48-2.44C28.07,54.1,31.17,55,34.5,55C43.61,55,51,48.28,51,40s-7.39-15-16.5-15S18,31.72,18,40
		C18,43.39,19.24,46.52,21.33,49.03z"/>
	<path clip-path="url(#SVGID_2_)" fill="#FFFFFF" d="M41.959,38.867c0-1.037-0.827-1.867-1.864-1.867h-0.027h-0.875
		C38.805,37,38,36.664,38,36.275v-2.459C38,32.261,37.037,31,36,31h-1c-0.518,0-0.993,0.481-1,1
		c-0.032,2.643-0.441,4.51-2.612,5.442c-0.964,0.414-1.347,1.402-1.347,1.402c-0.054,0.053,0,6.252,0,6.252S31.681,47,35.495,47
		h4.526c1.02,0,1.931-0.761,1.977-1.781L41.959,38.867z"/>
	
		<path clip-path="url(#SVGID_2_)" fill="none" stroke="#6CBE99" stroke-width="2" stroke-linecap="round" stroke-linejoin="round" stroke-miterlimit="10" d="
		M41.959,38.867c0-1.037-0.827-1.867-1.864-1.867h-0.027h-0.875C38.805,37,38,36.664,38,36.275v-2.459C38,32.261,37.037,31,36,31h-1
		c-0.518,0-0.993,0.481-1,1c-0.032,2.643-0.441,4.51-2.612,5.442c-0.964,0.414-1.347,1.402-1.347,1.402
		c-0.054,0.053,0,6.252,0,6.252S31.681,47,35.495,47h4.526c1.02,0,1.931-0.761,1.977-1.781L41.959,38.867z"/>
	<path clip-path="url(#SVGID_2_)" fill="#FFFFFF" d="M30,46.296C30,46.685,29.685,47,29.296,47h-2.592
		C26.315,47,26,46.685,26,46.296v-8.592C26,37.315,26.315,37,26.704,37h2.592C29.685,37,30,37.315,30,37.704V46.296z"/>
	<path clip-path="url(#SVGID_2_)" fill="none" stroke="#6CBE99" stroke-width="2" stroke-miterlimit="10" d="M30,46.296
		C30,46.685,29.685,47,29.296,47h-2.592C26.315,47,26,46.685,26,46.296v-8.592C26,37.315,26.315,37,26.704,37h2.592
		C29.685,37,30,37.315,30,37.704V46.296z"/>
	<path clip-path="url(#SVGID_2_)" fill="#D1E6DE" d="M188,196c12.223,0,18-13,18-13s-5.777-13-18-13s-18,13-18,13
		S175.777,196,188,196"/>
	
		<path clip-path="url(#SVGID_2_)" fill="none" stroke="#6CBE99" stroke-width="2" stroke-linecap="round" stroke-linejoin="round" stroke-miterlimit="10" d="
		M188,196c12.223,0,18-13,18-13s-5.777-13-18-13s-18,13-18,13S175.777,196,188,196z"/>
	<path clip-path="url(#SVGID_2_)" fill="#FFFFFF" d="M194,183c0,3.314-2.686,6-6,6s-6-2.686-6-6s2.686-6,6-6S194,179.686,194,183"/>
	
		<circle clip-path="url(#SVGID_2_)" fill="none" stroke="#6CBE99" stroke-width="2" stroke-linecap="round" stroke-linejoin="round" stroke-miterlimit="10" cx="188" cy="183" r="6"/>
</g>
</svg>
