<?xml version="1.0" encoding="utf-8"?>
<!-- Generator: Adobe Illustrator 18.1.1, SVG Export Plug-In . SVG Version: 6.00 Build 0)  -->
<!DOCTYPE svg PUBLIC "-//W3C//DTD SVG 1.1//EN" "http://www.w3.org/Graphics/SVG/1.1/DTD/svg11.dtd">
<svg version="1.1" id="Layer_1" xmlns="http://www.w3.org/2000/svg" xmlns:xlink="http://www.w3.org/1999/xlink" x="0px" y="0px"
	 viewBox="365.8 333.8 71.6 91.5" enable-background="new 365.8 333.8 71.6 91.5" xml:space="preserve">
<path fill="#6BBE98" d="M401.6,351.3c-10.3,0-18.7,8.4-18.7,18.3s8.4,18.3,18.7,18.3s18.7-8.4,18.7-18.3S412,351.3,401.6,351.3z
	 M401.6,379.9c-6,0-10.7-4.8-10.7-10.3s4.8-10.3,10.7-10.3s10.7,4.8,10.7,10.3S407.6,379.9,401.6,379.9z M401.6,351.3
	c-10.3,0-18.7,8.4-18.7,18.3s8.4,18.3,18.7,18.3s18.7-8.4,18.7-18.3S412,351.3,401.6,351.3z M401.6,379.9c-6,0-10.7-4.8-10.7-10.3
	s4.8-10.3,10.7-10.3s10.7,4.8,10.7,10.3S407.6,379.9,401.6,379.9z M401.6,351.3c-10.3,0-18.7,8.4-18.7,18.3s8.4,18.3,18.7,18.3
	s18.7-8.4,18.7-18.3S412,351.3,401.6,351.3z M401.6,379.9c-6,0-10.7-4.8-10.7-10.3s4.8-10.3,10.7-10.3s10.7,4.8,10.7,10.3
	S407.6,379.9,401.6,379.9z M401.6,351.3c-10.3,0-18.7,8.4-18.7,18.3s8.4,18.3,18.7,18.3s18.7-8.4,18.7-18.3S412,351.3,401.6,351.3z
	 M401.6,379.9c-6,0-10.7-4.8-10.7-10.3s4.8-10.3,10.7-10.3s10.7,4.8,10.7,10.3S407.6,379.9,401.6,379.9z M401.6,333.8
	c-19.9,0-35.8,15.9-35.8,35.8s29.8,55.7,35.8,55.7c5.6,0,35.8-35.8,35.8-55.7S421.5,333.8,401.6,333.8z M401.6,416.1
	c-8.4-7.2-27.8-33-27.8-46.5c0-15.5,12.3-27.8,27.8-27.8s27.8,12.3,27.8,27.8C429.5,383.1,410,408.9,401.6,416.1z M401.6,351.3
	c-10.3,0-18.7,8.4-18.7,18.3s8.4,18.3,18.7,18.3s18.7-8.4,18.7-18.3S412,351.3,401.6,351.3z M401.6,379.9c-6,0-10.7-4.8-10.7-10.3
	s4.8-10.3,10.7-10.3s10.7,4.8,10.7,10.3S407.6,379.9,401.6,379.9z M401.6,351.3c-10.3,0-18.7,8.4-18.7,18.3s8.4,18.3,18.7,18.3
	s18.7-8.4,18.7-18.3S412,351.3,401.6,351.3z M401.6,379.9c-6,0-10.7-4.8-10.7-10.3s4.8-10.3,10.7-10.3s10.7,4.8,10.7,10.3
	S407.6,379.9,401.6,379.9z M401.6,351.3c-10.3,0-18.7,8.4-18.7,18.3s8.4,18.3,18.7,18.3s18.7-8.4,18.7-18.3S412,351.3,401.6,351.3z
	 M401.6,379.9c-6,0-10.7-4.8-10.7-10.3s4.8-10.3,10.7-10.3s10.7,4.8,10.7,10.3S407.6,379.9,401.6,379.9z"/>
</svg>
