<?xml version="1.0" encoding="utf-8"?><!DOCTYPE svg PUBLIC "-//W3C//DTD SVG 1.1//EN" "http://www.w3.org/Graphics/SVG/1.1/DTD/svg11.dtd"><svg version="1.1" baseProfile="full" xmlns="http://www.w3.org/2000/svg" xmlns:xlink="http://www.w3.org/1999/xlink" xmlns:ev="http://www.w3.org/2001/xml-events"   height="20px"   width="20px" ><path fill="rgb( 107, 190, 152 )" d="M19.5,11 C19.5,11 11,11 11,11 C11,11 11,19.5 11,19.5 C11,19.776 10.776,20 10.5,20 C10.5,20 9.5,20 9.5,20 C9.22400000000005,20 9,19.776 9,19.5 C9,19.5 9,11 9,11 C9,11 0.5,11 0.5,11 C0.22400000000005,11 0,10.776 0,10.5 C0,10.5 0,9.5 0,9.5 C0,9.22400000000005 0.22400000000005,9 0.5,9 C0.5,9 9,9 9,9 C9,9 9,0.5 9,0.5 C9,0.22400000000005 9.22400000000005,0 9.5,0 C9.5,0 10.5,0 10.5,0 C10.776,0 11,0.22400000000005 11,0.5 C11,0.5 11,9 11,9 C11,9 19.5,9 19.5,9 C19.776,9 20,9.22400000000005 20,9.5 C20,9.5 20,10.5 20,10.5 C20,10.776 19.776,11 19.5,11 Z "/></svg>