<svg xmlns="http://www.w3.org/2000/svg" width="140" height="149" viewBox="0 0 140 149"><path fill-rule="evenodd" clip-rule="evenodd" fill="#fff" d="M16.7 143.9c0 1.9 0 3.5-2.1 3.5-2.2 0-2.4-1.6-2.4-3.5v-5.6h-2.3v6.5c0 3 1.9 4.3 4.6 4.3 2.4 0 4.6-1.3 4.6-4.3v-6.5h-2.4v5.6zm15.5 2.7l-4-8.3h-3.5v10.5h2.1v-8.9l4.3 8.9h3.2v-10.5h-2.1v8.3zm7.6 2.1h2.4v-10.5h-2.4v10.5zm12.3-2.1l-2.7-8.3h-2.4l3.8 10.5h2.4l4-10.5h-2.4l-2.7 8.3zm9.7 2.1h7.3v-1.9h-4.8v-2.7h4.3v-1.9h-4.3v-2.4h4.8v-1.6h-7.3v10.5zm18.8-5.1v-.3c1.1-.3 2.1-1.1 2.1-2.4 0-2.2-1.9-2.7-3.8-2.7h-4.3v10.5h2.1v-4.3h2.4c.8 0 .8.8.8 1.3.3 1.1.3 1.9.5 3h2.6c-.5-.5-.5-1.9-.5-2.4-.3-1.6-.3-2.7-1.9-2.7zm-1.9-.8h-1.9v-3h1.9c1.1 0 1.6.5 1.6 1.3 0 1.2-.5 1.7-1.6 1.7zm13.5-.3c-.8-.3-1.9-.5-1.9-1.6 0-.8.8-1.3 1.9-1.3 1.1 0 1.6.5 1.6 1.6h2.2c0-2.2-1.6-3.2-3.5-3.2-2.1 0-4.6 1.1-4.6 3.5 0 1.9 2.2 2.4 3.5 3 1.1.3 2.4.3 2.4 1.3 0 1.3-1.1 1.6-2.1 1.6-1.1 0-1.6-.8-1.6-2.2h-2.4c0 2.7 1.6 3.8 4 3.8s4.6-1.1 4.6-3.5c-.1-2.2-2.5-2.7-4.1-3zm9.4 6.2h2.1v-10.5h-2.1v10.5zm7-8.8h3.2v8.9h2.2v-8.9h3.2v-1.6h-8.6v1.6zm17.4 3.2l-2.1-4.8h-2.7l3.8 7v3.5h2.1v-3.5l3.5-7h-2.1l-2.5 4.8zm-15.3-114.9c.5 0 .8-.8.8-1.3-.8-1.3-3-1.6-3.8-.5-.5.5-.3 1.1 0 1.6.9.5 1.9.5 3 .2zm-20.4 37.7c.5.3.8.3 1.3.3.8 0 1.1 0 1.6-.3l.5-.5c1.9-2.2.8-5.4 0-7.5-.5.8-1.9 1.6-3 1.9-2.7 0-4.3-3-5.1-5.1.3 1.9.3 3.8.8 5.6.9 2.1 1.7 4.5 3.9 5.6zm8.9-35.2s-.3.3-.5.3c-1.1.5-2.2 0-3-.5-.5-.5-.9-1.1-1-1.8.2 1.6-.2 3.7 1 4.7 1.6.2 2.6-1.7 3.5-2.7zm-50.6 9.9v.3-.3zm-29.8 50.8c-1.6 0-3 .3-3.5.5-.3.3-.3 1.2-.3 2.5v21c0 4.8.5 5.9 4.6 5.9 8.6 0 13.2-6.2 13.2-14.8 0-11.3-5.7-15.1-14-15.1zm89.8-2.1c.5-.3 1.3-.8 1.3-1.6s-.3-1.3-.8-1.9c-.8-.5-1.6-.8-2.4-.5-.3 1.3-.8 2.4-1.9 3.5 1.1.8 2.7 1 3.8.5zm-8.6-2.2c.8 0 1.1-.5 1.1-1.1l-2.1-.8v.8c.2.6.4 1.1 1 1.1zm14.2-20.9s0-.3-.3-.3c-.3-.5-.5-.8-1.1-1.1v1.1c0 .8 0 1.3-.3 1.9.9-.3 1.7-.6 1.7-1.6zm-41.4 40.8c0-2.2-1.6-4.8-3.8-4.8s-4.3 2.4-4.8 6.5l7.8-.3c.8 0 .8-.3.8-1.4zm43 0c0-2.2-1.6-4.8-4-4.8-2.1 0-4.3 2.4-4.8 6.5l7.8-.3c.7 0 1-.3 1-1.4zm-115.8-107v131.8h140v-131.8h-140zm16.7 48.1l.8-1.1c2.1-3.2 6.2-5.1 10.2-4.6 3.2.5 5.6 2.7 6.7 5.6.3.3.3.5.5.8v1.2c-.3-.5-.8-1.3-1.3-1.9-1.1-1.6-2.7-3-4.6-3.5.3.8 0 1.6 0 2.4-.5-1.1-1.9-2.2-3.2-2.4.8.8 1.3 2.2 1.1 3.2-.8-.8-2.1-1.9-3.5-1.3.5.3 1.1.8 1.6 1.6.3.5.8 1.1.8 1.6-.8-.5-2.4-1.3-3.8-.8 1.1.8 3.2 1.3 3.2 3.5-.5-.5-1.3-.8-2.2-.5l-.8.5c.8.3 2.1.5 2.7 1.6l.5.8c-1.1 0-2.4.3-3.5 1.1 1.3.3 3 .5 3.8 1.9-1.1.3-2.4.8-3 2.4 1.3-.8 3-.8 4 .3-1.3.5-2.7 2.2-2.4 3.8 1.3-.8 3-1.6 4.6-.8-1.1.5-2.2 1.3-2.4 2.4-.3.5-.5 1.1-.5 1.6v.5c1.3-1.3 3-2.4 4.8-1.9-1.6.8-2.4 2.4-2.2 4.3l.8-.8c1.1-.8 2.4-1.6 3.8-1.6-1.1 1.3-2.1 3-1.6 4.6.8-1.6 2.4-3.2 4.3-3.5-1.1 1.3-1.3 2.7-1.3 4.3 1.3-1.6 3.2-3.8 5.4-4.6-.8 1.3-1.3 3.5-.5 5.4.5-2.2 1.9-4.3 3.2-5.6-.3 1.9.3 3.5 1.6 4.6h.3c-.3-2.4.8-4.3 1.9-5.9-.3 1.3.5 3 1.9 3.5l.5.3c-.5-1.3-1.1-3.2-.8-5.1 1.1 1.1 2.7 2.4 4.6 2.2-.8-.5-1.6-1.3-2.4-2.2-1.9-1.9-3.2-3.8-4-5.9 1.1 1.1 2.7 1.9 4.6 1.6-3.5-2.2-6.4-6.5-6.7-10.5.8 1.6 2.4 3 4 3.5-1.3-1.9-2.7-4-3.2-6.5-.5-1.9-.8-3.8-.3-5.6.5 2.2 1.6 4.8 4 5.4-1.3-2.4-3-4.8-2.7-8.1.3-1.9.8-3.8 1.9-5.1-.9 1.5-.9 4.2.7 5.8-.4-4.7 1.5-9.4 5.4-11.5l1.6-.8c-1.1 1.6-2.1 3.2-2.1 5.4 1.9-3.8 5.9-7.8 10.7-7.5.8 0 1.3 0 2.1.3-2.1.8-4.6 2.4-4.8 4.8 3.2-3 7.8-4.6 12.4-3 1.1.5 2.2 1.1 3 1.9-1.6-.8-3.5-.3-4.8.8-.5.3-1.3 1.1-1.6 1.6 3-1.1 7.8-1.9 10.2 1.3l1.6 2.4c-1.6-1.3-3.5-2.2-5.6-1.6-.5 0-.8.3-1.3.5 3.5 0 7 1.9 8.3 5.1l.5 1.9c-1.1-1.9-2.7-3.5-4.8-3.5 1.3 1.3 3 2.4 3.5 4.3.8 1.6 1.1 3.5 2.1 5.1.5.8 1.1 1.6 2.1 2.2 1.1.5 2.4.8 3.5 1.1-1.6-.5-3-1.9-3.8-3.2-1.3-2.4-2.1-5.4-2.1-8.1.8 1.3 2.4 2.7 3.8 3.2l-2.1-2.7c-2.7-3-4-6.7-3.2-10.8.8-2.4 2.4-4.6 4-6.7-1.3 2.7-1.6 6.5.3 8.9.8 1.3 1.9 2.4 3 3.2-2.2-3-3.2-7-1.9-10.8 1.9-5.1 7-7.8 11.8-8.1h1.3c-2.4.3-4.3 1.9-5.6 3.8-1.1 2.2-1.3 5.1 0 7 .8 1.1 1.9 1.9 3.2 1.9 3.2-.5 5.4-4 8.6-4.6 1.9-.8 3.8.3 5.1 1.6 1.1.5 2.7.5 3.8-.3-3.5 2.7-5.6 7-6.2 11.6-.5-2.2-1.6-4.6-3.8-5.4-2.4-.8-4.3.8-5.9 2.2-1.6 1.6-2.1 3.5-3 5.4 1.1-.8 2.4-2.2 4-2.4 2.1-.8 4 0 5.6 1.1.8.5 1.3 1.1 1.6 2.2-2.2 1.3-2.7 3.8-2.7 6.2-.5-1.9-1.3-4.3-3.8-5.1-1.3-.8-3.2-.5-4.3.8-1.1 1.1-1.1 2.7-.8 4 0 .5.3 1.3.5 1.9 1.6 3 4.6 4.6 7.5 5.6 3.5 1.3 7 4.6 7.3 8.6.5 0 1.6-.5 2.1 0 .5-1.9 1.3-4.3 3.5-4.8 1.6-.5 3.2 0 4.6 1.1 1.1 1.6 1.9 3.2 1.3 5.4 0 .5-.3 1.3-.8 1.9 0-1.1 0-2.2-.5-3-.5-.8-1.1-1.1-1.9-1.1-.5-.3-1.1.3-1.3.5-.3 1.6.3 2.4 1.1 3.5 1.1.8 2.2 1.9 2.2 3.2 0 1.6-.5 3-1.9 3.8-1.6.5-3.2 0-4-1.1-.8-.5-1.1-1.1-1.3-1.6 1.1.5 3.2 1.1 4.3 0 .5-.5.8-1.1.8-1.9 0-1.1-.5-1.9-1.3-2.4 0 0 0-.3-.3-.3-.5-.5-1.3-.8-2.2-.8.3.3.3.5.3 1.1 0 .8 0 1.3-.5 1.9-1.1 1.6-3 1.6-4.8 1.3-.8 2.4-2.7 4.3-4.8 5.6-2.2 1.3-4.3 2.2-6.4 2.7l-3.5.3c2.1 1.3 4.3 2.4 6.7 3.2 1.1-1.9 2.7-4.3 5.1-4.8 1.9-.3 3.8.3 4.6 1.9 1.1 1.6 1.6 3.5.8 5.4l-.3.3-.5 1.3c0-.5.3-.8 0-1.3 0-1.1-.3-2.2-1.3-3-.5-.5-1.3-.5-2.1-.5-.5 0-1.3.5-1.6 1.3-.3.8 0 1.6.3 2.2 1.1 1.9 4 2.4 3.8 5.4-.3.8-.5 1.6-1.6 2.4-1.1 1.1-3.5 1.1-5.1.3-.8-.3-1.9-1.1-2.4-1.9-1.3.8-3.2.8-4.3-.3-1.6-1.3-1.9-3.2-2.4-5.1-.8-.3-1.3-.5-1.9-.8-5.1-2.2-9.7-5.1-14-8.9-.8-.8-1.6-1.6-2.4-2.7-1.9-1.6-3-3.8-3.8-6.2-1.1-2.7-1.3-5.9-.8-8.9s.5-6.2-.3-8.9c-.8-2.2-1.9-4-3.8-5.4-2.2-1.1-4.8-1.6-7.3-.8-2.1 1.1-3.8 3.5-4 6.2.3 4.6 2.7 8.6 4.8 12.6.8 1.6 1.1 3.2 1.1 5.1 0 3.2-1.3 6.5-3.5 8.9h-.3c-2.7 3.5-7 4.6-9.9 7.5-.5.3-.5.8-.5 1.3v.3c1.1 1.3 3.2 1.3 4.8 1.1 1.3-.3 2.7-.8 3.8-1.3 2.1-1.1 4-2.4 6.2-3 2.1-.3 4.3.3 5.4 2.4.3 0 .3.3.5.5.3.8.3 1.3 0 2.1-.3 1.1-1.1 1.9-1.9 2.4-.5.3-1.3.3-1.9 0 .8-.3 1.6-.8 1.9-1.6.3-.8 0-1.9-.5-2.4-.3-.3-.5-.3-.8-.5-.5-.3-1.1-.3-1.6-.3l.3.3c.5.5.8 1.3.8 2.4-.3 1.6-1.6 3-3 3.5-.8.3-1.6 0-2.4-.5-.5-.5-.8-1.1-1.1-1.6.3.3.8.8 1.6.5.8 0 1.3-.5 1.6-1.3.3-.5.3-1.3 0-1.9-.3-.5-1.1-.8-1.6-.5-2.4.5-3 4-5.4 4.6l-9.4.3-9.7.3c-.5-.3-1.3-.5-1.6-1.1-.8-1.6.8-3.2.3-4.6l-.8-.8c-3.8-2.4-7.5-4.8-11-8.1-1.9-1.9-3.8-4-5.4-6.5-.3-.8-.8-1.6-1.3-2.4-2.8-5.3-4.7-12.3-1.7-17.7zm.8 75.3h-12.9v-1.3c4.3-.5 4.6-.8 4.6-6.5v-18.2c0-5.6-.3-6.2-4.3-6.5v-1.3h15.6c5.9 0 11.3 1.1 14.8 4.6 2.4 2.4 4.3 6.2 4.3 10.8-.1 12.8-10 18.4-22.1 18.4zm39.7-17.2c-.8.3-1.3.3-1.6 0-.8-.8-1.6-1.3-2.4-1.3-.8 0-2.1.8-3.2 3v10.8c0 2.7.3 3 4 3.5v1.3h-12.9v-1.3c3.2-.5 3.5-.8 3.5-3.5v-11.8c0-3.2-.3-3.2-3.5-3.5v-1.3c2.7-.3 6.2-1.1 8.9-1.9v5.4c1.3-2.2 3.5-5.4 5.9-5.4 1.9 0 3.2 1.6 3.2 3 0 1.2-.8 2.8-1.9 3zm12.7 17.8c-7 0-11-4.8-11-10.8-.3-6.7 4.6-13.2 11.6-13.2 4.3 0 7.8 3.8 7.8 7.5 0 1.9 0 2.2-1.1 2.2-.8.3-7.5.8-13.2 1.1 0 6.5 4 9.1 8.1 9.1 1.6 0 3.2-.5 5.4-2.2l.8.8c-3.1 4.7-7.1 5.5-8.4 5.5zm33-.6h-12.3v-1.3l1.6-.3c.8-.3.8-.8.3-1.9l-3.5-5.1c-1.1 1.6-2.1 3.2-3.2 5.1-.8 1.3-.8 1.6 0 1.9l1.6.3v1.3h-9.7v-1.3c3-.5 3.8-.5 5.9-3.5 1.1-1.3 2.7-3.5 4.3-5.6l-4.8-7.5c-1.9-2.7-2.2-3-5.1-3.2v-1.3h11.6v1.3l-1.3.3c-.8 0-.8.5-.3 1.6l3 4.6c1.1-1.6 2.1-3 3-4.3.8-1.3 1.1-1.9 0-1.9l-1.3-.3v-1.3h9.7v1.3c-3.2.3-4 .5-6.2 3.2-.5.5-1.9 2.4-3.8 4.8l5.1 8.1c2.1 3.2 3 3.2 5.6 3.8v1.2zm9.7.6c-6.7 0-10.7-4.8-11-10.8 0-6.7 4.8-13.2 11.8-13.2 4.3 0 7.8 3.8 7.8 7.5 0 1.9-.3 2.2-1.1 2.2-.8.3-7.5.8-13.2 1.1-.3 6.5 3.8 9.1 7.8 9.1 1.9 0 3.5-.5 5.6-2.2l.5.8c-2.8 4.7-6.6 5.5-8.2 5.5zm21-.6h-12.4v-1.3c3.2-.5 3.5-.8 3.5-3.5v-25.8c0-3-.3-3-3.5-3.2v-1.3c2.1-.5 6.2-1.3 8.9-1.9v32.3c0 2.7.3 3 3.5 3.5v1.2z"/></svg>