<?xml version="1.0" encoding="utf-8"?>
<!-- Generator: Adobe Illustrator 18.1.1, SVG Export Plug-In . SVG Version: 6.00 Build 0)  -->
<!DOCTYPE svg PUBLIC "-//W3C//DTD SVG 1.1//EN" "http://www.w3.org/Graphics/SVG/1.1/DTD/svg11.dtd">
<svg version="1.1" id="Layer_1" xmlns="http://www.w3.org/2000/svg" xmlns:xlink="http://www.w3.org/1999/xlink" x="0px" y="0px"
	 viewBox="839.1 329.8 71.6 87.5" enable-background="new 839.1 329.8 71.6 87.5" xml:space="preserve">
<g>
	<path fill="#6BBE98" d="M899.5,353.6h-12.7v8h12.7c1.6,0,3.2,1.6,3.2,3.2v41.4c0,1.6-1.6,3.2-3.2,3.2h-49.3c-1.6,0-3.2-1.6-3.2-3.2
		v-41.4c0-1.6,1.6-3.2,3.2-3.2h12.7v-8h-12.7c-6.4,0-11.1,5.2-11.1,11.1v41.4c0,6.4,5.2,11.1,11.1,11.1h49.3
		c6.4,0,11.1-5.2,11.1-11.1v-41.4C910.6,358.8,905.5,353.6,899.5,353.6z"/>
	<path fill="#6BBE98" d="M860.1,348.9c0.8,0.8,2,1.2,2.8,0.4l8-6.8v48.9c0,1.2,0.8,2,2,2h4c1.2,0,2-0.8,2-2v-48.9l8,6.8
		c0.8,0.8,2,0.4,2.8-0.4l2.4-3.2c0.8-0.8,0.4-2-0.4-2.8l-15.1-12.7c-0.4-0.4-1.2-0.4-1.6-0.4c-0.4,0-1.2,0-1.6,0.4l-15.1,12.7
		c-0.8,0.8-1.2,2-0.4,2.8L860.1,348.9z"/>
</g>
</svg>
